<?xml version="1.0" encoding="utf-8"?>
<!-- Generator: Adobe Illustrator 22.1.0, SVG Export Plug-In . SVG Version: 6.00 Build 0)  -->
<svg version="1.1" id="Capa_1" xmlns="http://www.w3.org/2000/svg" xmlns:xlink="http://www.w3.org/1999/xlink" x="0px" y="0px"
	 viewBox="0 0 202 221" style="enable-background:new 0 0 202 221;" xml:space="preserve">
<style type="text/css">
	.st0{fill:#FFFFFF;}
	.st1{fill:#4B7BBD;}
	.st2{font-family:'OpenSans-Bold';}
	.st3{font-size:17.4231px;}
	.st4{fill:#EDC312;}
	.st5{font-family:'OpenSans-Extrabold';}
	.st6{font-size:40.7715px;}
	.st7{fill:#F7DDE2;}
</style>
<circle class="st0" cx="101" cy="101" r="100.8"/>
<text transform="matrix(1 0 0 1 70.5651 151.7783)" class="st1 st2 st3">Ahorro</text>
<circle class="st4" cx="101" cy="198.5" r="22.5"/>
<text transform="matrix(1 0 0 1 89.4632 212.806)" class="st0 st5 st6">+</text>
<g>
	<g>
		<g>
			<g>
				<path class="st1" d="M100.3,128.8h10c8.1,0,14.7-6.6,14.7-14.7V91h-4.4v23.1c0,5.7-4.6,10.3-10.3,10.3h-10
					c-5.7,0-10.3-4.6-10.3-10.3V91c0-0.2,0-0.4,0-0.7L85.6,90c0,0.3,0,0.6,0,0.9v23.1C85.6,122.2,92.2,128.8,100.3,128.8z"/>
			</g>
		</g>
	</g>
	<g>
		<g>
			<g>
				<g>
					<g>
						<path class="st7" d="M93.1,43.7c0,1.7,1.4,3.1,3.1,3.1l0,0c1.7,0,3.1-1.4,3.1-3.1V28.4c0-1.7-1.4-3.1-3.1-3.1l0,0
							c-1.7,0-3.1,1.4-3.1,3.1V43.7z"/>
					</g>
				</g>
			</g>
			<g>
				<g>
					<g>
						<path class="st7" d="M76.4,43.7c0,1.7,1.4,3.1,3.1,3.1l0,0c1.7,0,3.1-1.4,3.1-3.1V28.4c0-1.7-1.4-3.1-3.1-3.1l0,0
							c-1.7,0-3.1,1.4-3.1,3.1V43.7z"/>
					</g>
				</g>
			</g>
		</g>
		<g>
			<g>
				<g>
					<g>
						<path class="st1" d="M84.4,78.2c0,1.9,1.5,3.4,3.4,3.4l0,0c1.9,0,3.4-1.5,3.4-3.4v-17c0-1.9-1.5-3.4-3.4-3.4l0,0
							c-1.9,0-3.4,1.5-3.4,3.4V78.2z"/>
					</g>
				</g>
			</g>
		</g>
		<g>
			<g>
				<g>
					<path class="st1" d="M104,44.6v9.3c0,9.3-7.3,16.9-16.3,16.9c-9,0-16.2-7.5-16.2-16.9v-9.3H104z"/>
				</g>
			</g>
		</g>
		<g>
			<g>
				<g>
					<g>
						<path class="st7" d="M91.2,48.3V61c0,1.9-1.5,3.4-3.4,3.4l0,0c-1.9,0-3.4-1.5-3.4-3.4V48.3H91.2z"/>
					</g>
				</g>
			</g>
		</g>
		<g>
			<g>
				<g>
					<path class="st7" d="M67.8,44.6c0,2,1.7,3.7,3.7,3.7h32.6c2,0,3.7-1.7,3.7-3.7v0c0-2-1.7-3.7-3.7-3.7H71.5
						C69.4,40.9,67.8,42.6,67.8,44.6L67.8,44.6z"/>
				</g>
			</g>
		</g>
	</g>
	<g>
		<g>
			<g>
				<path class="st7" d="M84.7,94.3l6.1,0c1.6,0,2.9-1.3,2.9-2.9l0-13.3c0-1.6-1.3-2.9-2.9-2.9h-6.1c-1.6,0-2.9,1.3-2.9,2.9l0,13.3
					C81.8,93,83.1,94.3,84.7,94.3z"/>
			</g>
		</g>
	</g>
	<g>
		<g>
			<g>
				<g>
					<path class="st7" d="M111.2,75c0,11.2,5.1,16.1,11.5,16.1c6.4,0,11.5-4.9,11.5-16.1c0-11.2-11.5-24.6-11.5-24.6
						S111.2,63.8,111.2,75z"/>
				</g>
			</g>
		</g>
	</g>
</g>
</svg>
