<?xml version="1.0" encoding="utf-8"?>
<!-- Generator: Adobe Illustrator 22.1.0, SVG Export Plug-In . SVG Version: 6.00 Build 0)  -->
<svg version="1.1" id="Capa_1" xmlns="http://www.w3.org/2000/svg" xmlns:xlink="http://www.w3.org/1999/xlink" x="0px" y="0px"
	 viewBox="0 0 196 215" style="enable-background:new 0 0 196 215;" xml:space="preserve">
<style type="text/css">
	.st0{fill:#E8F5FD;}
	.st1{fill:#92B4E0;}
	.st2{font-family:'OpenSans-Semibold';}
	.st3{font-size:25.4844px;}
	.st4{fill:#FFFFFF;}
	.st5{fill:#CDDCF5;}
	.st6{fill:#F7DDE2;}
	.st7{fill:#BCD1F2;}
	.st8{fill:#8EB4EA;}
	.st9{fill:#659EE3;}
</style>
<circle class="st0" cx="97.8" cy="117.3" r="98"/>
<text transform="matrix(1 0 0 1 37.6289 140.1367)" class="st1 st2 st3">Comercio</text>
<g>
	<g id="XMLID_16_">
		<g id="XMLID_30_">
			<g>
				<polygon class="st4" points="112.1,0.2 88.1,0.2 88.1,18.9 85.8,20.2 85.8,105.5 138.5,105.5 138.5,20.2 				"/>
			</g>
		</g>
		<g id="XMLID_29_">
			<g>
				<polygon class="st5" points="114.5,105.5 61.7,105.5 61.7,20.2 88.1,0.2 114.5,20.2 				"/>
			</g>
		</g>
		<g id="XMLID_28_">
			<g>
				<rect x="114.5" y="20.2" class="st6" width="24" height="85.3"/>
			</g>
		</g>
		<g id="XMLID_25_">
			<g id="XMLID_27_">
				<g>
					<g>
						<polygon class="st7" points="68.8,105.5 68.8,24.4 88.1,8.3 107.4,24.4 107.4,105.5 						"/>
					</g>
				</g>
			</g>
			<g id="XMLID_26_">
				<g>
					<g>
						<polygon class="st8" points="68.8,105.5 68.8,24.4 88.1,8.3 107.4,24.4 107.4,105.5 						"/>
					</g>
				</g>
			</g>
		</g>
		<g id="XMLID_24_">
			<g>
				<rect x="68.8" y="24.4" class="st9" width="3.4" height="81.1"/>
			</g>
		</g>
		<g id="XMLID_23_">
			<g>
				<polygon class="st9" points="68.8,24.4 72.2,25.2 90.5,10.2 88.1,8.3 				"/>
			</g>
		</g>
		<g id="XMLID_22_">
			<g>
				<g>
					<rect x="69.9" y="70.8" class="st9" width="37.6" height="3.3"/>
				</g>
			</g>
		</g>
		<g id="XMLID_5_">
			<g>
				<g>
					<rect x="69.9" y="56.2" class="st9" width="37.6" height="3.3"/>
				</g>
			</g>
		</g>
		<g id="XMLID_6_">
			<g>
				<g>
					<rect x="69.9" y="41.7" class="st9" width="37.6" height="3.3"/>
				</g>
			</g>
		</g>
		<g id="XMLID_7_">
			<g>
				<g>
					<rect x="69.9" y="27.1" class="st9" width="37.6" height="3.3"/>
				</g>
			</g>
		</g>
		<g id="XMLID_21_">
			<g>
				<g>
					<rect x="69.9" y="88.8" class="st9" width="37.6" height="3.3"/>
				</g>
			</g>
		</g>
		<g id="XMLID_20_">
			<g>
				<g>
					<rect x="86.8" y="10.1" class="st9" width="3.3" height="95.4"/>
				</g>
			</g>
		</g>
		<g id="XMLID_19_">
			<g>
				<rect x="123" y="27.3" class="st8" width="8.7" height="51"/>
			</g>
		</g>
		<g id="XMLID_18_">
			<g>
				<rect x="123" y="85.6" class="st8" width="8.7" height="13.3"/>
			</g>
		</g>
		<g id="XMLID_17_">
			<g>
				<polygon class="st5" points="110.4,2.1 131.1,17.9 117.1,17.9 96.4,2.1 				"/>
			</g>
		</g>
	</g>
	<g>
		<g>
			<g>
				<path class="st5" d="M50.3,105.5h95c1.1,0,2.1,0.9,2.1,2.1v0c0,1.1-0.9,2.1-2.1,2.1h-95c-1.1,0-2.1-0.9-2.1-2.1v0
					C48.2,106.5,49.1,105.5,50.3,105.5z"/>
			</g>
		</g>
	</g>
</g>
</svg>
