<?xml version="1.0" encoding="utf-8"?>
<!-- Generator: Adobe Illustrator 22.1.0, SVG Export Plug-In . SVG Version: 6.00 Build 0)  -->
<svg version="1.1" id="Capa_1" xmlns="http://www.w3.org/2000/svg" xmlns:xlink="http://www.w3.org/1999/xlink" x="0px" y="0px"
	 viewBox="0 0 202 221" style="enable-background:new 0 0 202 221;" xml:space="preserve">
<style type="text/css">
	.st0{fill:#FFFFFF;}
	.st1{fill:#CDDCF5;}
	.st2{fill:#4B7BBD;}
	.st3{fill:#F7DDE2;}
	.st4{font-family:'OpenSans-Bold';}
	.st5{font-size:17.4231px;}
	.st6{fill:#EDC312;}
	.st7{font-family:'OpenSans-Extrabold';}
	.st8{font-size:40.7715px;}
</style>
<circle class="st0" cx="101.3" cy="101" r="100.8"/>
<g>
	<path class="st1" d="M63.5,57.9L55.2,77l25.5,30.3l17.5,12.5c0,0,5.6,0.9,6.1,0.9c0.6,0,4.5-1,4.5-1s1.3-1.3,1.5-1.4
		c0.2-0.1,3.7-1.9,3.7-1.9l4.1,1.7c0,0,3.5,0.6,4.3-2.4c0.8-3.1,1.9-4.4,1.9-4.4l5.4-0.6l1.1-4.5l3.5-3.7l3.1-0.9
		c0,0,2.2-2.3,1.9-1.5s0-5.6,0-5.6l-8.3-14.7l-6.1-11.9l-12.5-6.7l-15.3-3.1L63.5,57.9z"/>
	<path class="st2" d="M95.4,72.6c-0.1,0,0.5-7.6,7-7.6s14.6,11.2,22.5,18s10,10,11.2,11.2c1.2,1.2,3.2,3.4,0,6.6
		c-3.2,3.2-9.4-3.5-11.7-5.2c-2.3-1.6-11.7-9.2-13.3-10.2s-2.8-0.9-3.5-0.1c-0.7,0.8-1.1,1.8,0.9,3.5c2,1.7,14.8,11.1,17,12.9
		c2.2,1.8,5.9,3.6,2.9,6.9c-2.9,3.3-4.9-0.1-7.4-2s-10.9-8.6-12.7-9.9c-1.8-1.3-3-2.7-4.8-0.8c-1.8,1.8,1.9,4,3.2,5.1
		c1.3,1,10.6,8.2,11.5,9c0.8,0.8,4.2,3,1.5,5.6c-2.6,2.6-5.1-0.2-7.2-1.8c-2-1.6-8.5-6.7-9.9-7.7c-1.3-1-2.5-1.6-3.8-0.2
		c-1.3,1.3,1.6,3.2,2.2,4c0.6,0.8,5.1,4.3,6.4,5.3c1.3,0.9,1.7,3.6-0.6,4s-7.7-4-9.3-5.4c-1.6-1.4-2.9-4.3-4.2-5.6
		c-1.3-1.3-1.9-1.5-3.6-1.6c-1.7-0.1-3-0.4-3.1-2c-0.1-1.6-0.9-5.6-4.8-5.5c-3.9,0-2.2-2.8-2.3-4.7c-0.1-1.9-1.5-3.9-4.2-3.8
		c-2.7,0-3.8,0.1-3.8,0.1L58,73.1l-2.4,4.6l13.1,15.7c0,0-2,3.4-3.9,5.9c-1.9,2.5-2.9,4.1,1.2,7.9c4.1,3.7,7.4-0.8,7.4-0.8
		s-2.7,4.7,1.7,7.6s7.4-1.1,7.4-1.1s-3.4,5.4,1.7,7.9s7.4-2.4,7.4-2.4s-1.7,7,4,7.5c5.7,0.5,5.1-3.5,5.7-4c0.6-0.5,1.7,1.4,5.2,1.1
		c3.5-0.3,5.2-3.3,5.7-4.5s5.3,3.8,8.9,1.2c3.6-2.6,3.4-4.4,3.4-6.1c0-1.7,4.6,1.5,7.2-2.7c2.6-4.2,1.7-5.6,1.7-5.6s4.8-0.5,7.1-4.1
		c2.3-3.7,0.5-7.5-0.3-8.8c-0.8-1.3-1-1.6-0.1-3.4s1.8-3.3,0.4-6c-1.4-2.7-12.4-27-13.5-28.6c-1.1-1.6-1.7-1.4-4.1-1.4
		s-10.2-3.4-15.9-3.4c-5.7,0.1-12.4,2.7-14.2,3.7l-26.3-0.4l-2.3,4.9l21.1,0.3c0,0-2.6,3.6-2.9,7.1c-0.3,3.5,0.6,5.3-0.7,7.4
		c-1.3,2.2-4,6.8,1.9,7.5c6,0.7,7-1.2,8.5-2.7S95.4,72.6,95.4,72.6z"/>
	<path d="M141.7,45.3"/>
	<path class="st3" d="M154.5,82.5l-2.3,1.1c-2.1,1-4.7,0.1-5.7-2l-15.1-31.4c-1-2.1-0.1-4.7,2-5.7l2.3-1.1c2.1-1,4.7-0.1,5.7,2
		l15.1,31.4C157.5,78.9,156.6,81.4,154.5,82.5z"/>
	<path class="st3" d="M50.3,83.4L48,82.2c-2.1-1.1-2.9-3.6-1.9-5.7l15.7-31.1c1.1-2.1,3.6-2.9,5.7-1.9l2.3,1.2
		c2.1,1.1,2.9,3.6,1.9,5.7L56,81.5C55,83.6,52.4,84.5,50.3,83.4z"/>
</g>
<text transform="matrix(1 0 0 1 43.5676 151.7783)" class="st2 st4 st5">Confiabilidad</text>
<circle class="st6" cx="101.3" cy="198.5" r="22.5"/>
<text transform="matrix(1 0 0 1 89.7664 212.806)" class="st0 st7 st8">+</text>
</svg>
