<?xml version="1.0" encoding="utf-8"?>
<!-- Generator: Adobe Illustrator 22.1.0, SVG Export Plug-In . SVG Version: 6.00 Build 0)  -->
<svg version="1.1" id="Capa_1" xmlns="http://www.w3.org/2000/svg" xmlns:xlink="http://www.w3.org/1999/xlink" x="0px" y="0px"
	 viewBox="0 0 202 221" style="enable-background:new 0 0 202 221;" xml:space="preserve">
<style type="text/css">
	.st0{fill:#FFFFFF;}
	.st1{fill:#4B7BBD;}
	.st2{font-family:'OpenSans-Bold';}
	.st3{font-size:17.4231px;}
	.st4{fill:#EDC312;}
	.st5{font-family:'OpenSans-Extrabold';}
	.st6{font-size:40.7715px;}
	.st7{clip-path:url(#SVGID_2_);fill:#F7DDE2;}
	.st8{clip-path:url(#SVGID_2_);fill:#CDDCF5;}
	.st9{clip-path:url(#SVGID_2_);fill:#4B7BBD;}
</style>
<circle class="st0" cx="101.1" cy="101" r="100.8"/>
<text transform="matrix(1 0 0 1 49.9789 152.1116)" class="st1 st2 st3">Durabilidad</text>
<circle class="st4" cx="101.1" cy="198.5" r="22.5"/>
<text transform="matrix(1 0 0 1 89.6099 212.806)" class="st0 st5 st6">+</text>
<g>
	<defs>
		<rect id="SVGID_1_" x="76.7" y="36.9" width="48.9" height="92.8"/>
	</defs>
	<clipPath id="SVGID_2_">
		<use xlink:href="#SVGID_1_"  style="overflow:visible;"/>
	</clipPath>
	<path class="st7" d="M113.3,112.9H88.8c-1.6,0-2.9,1.2-2.9,2.7c0,1.5,1.3,2.7,2.9,2.7h24.6c1.6,0,2.9-1.2,2.9-2.7
		C116.3,114.2,115,112.9,113.3,112.9"/>
	<path class="st7" d="M114.8,107.5H87.3c-1.5,0-2.7,1.2-2.7,2.7c0,1.5,1.2,2.7,2.7,2.7h27.4c1.5,0,2.7-1.2,2.7-2.7
		C117.5,108.8,116.3,107.5,114.8,107.5"/>
	<path class="st8" d="M88.6,119.6c0,5.6,4.5,10.1,10.1,10.1h4.8c5.6,0,10.1-4.5,10.1-10.1v-1.3h-25V119.6z"/>
	<path class="st7" d="M79.8,72.4c0.2-0.4,0.5-0.9,0.8-1.3c0.2-0.3,0.5-0.7,0.8-1c0.4-0.4,0.9-0.8,1.5-1.1c0.6-0.3,1.3-0.5,2-0.5
		c1.2,0,2.3,0.5,2.9,1.4c1.2,1.6,2,3.2,2.8,4.8c1.3,2.7,2.2,5.3,3,8.1c0.2,0.7,0.4,1.4,0.5,2.1c0.2,0.8,0.3,1.4,0.4,2.1
		c0.2,1.3,0.4,2.7,0.6,4c0.2,1.4,0.4,2.8,0.6,4.2c0.1,0.8-0.3,1.6-1.1,2.2c-0.5,0.4-1,0.7-1.7,0.9c-0.6,0.2-1.3,0.3-1.9,0.3
		c-0.5,0-0.9,0-1.4-0.1c-0.6-0.1-1.2-0.2-1.7-0.5c-0.9-0.4-1.5-1.1-1.6-1.9c-0.2-1.4-0.4-2.7-0.6-4.1c-0.2-1.3-0.4-2.5-0.6-3.8
		c-0.1-0.6-0.2-1.2-0.3-1.8c-0.1-0.6-0.3-1.1-0.4-1.7c-0.7-2.3-1.5-4.7-2.6-6.8c-0.6-1.3-1.3-2.5-2.1-3.5
		C79.3,73.8,79.4,73.1,79.8,72.4"/>
	<path class="st7" d="M123.5,77.3c-0.3-0.4-0.7-0.8-1.1-1.2c-0.3-0.3-0.7-0.5-1.1-0.7c-0.6-0.3-1.2-0.5-1.8-0.7
		c-0.7-0.2-1.3-0.2-1.9-0.2c-1,0.1-1.8,0.4-2.2,1.1c-0.7,1.2-1.4,2.5-2.2,3.7c-0.6,1-1.2,2.1-1.8,3.2c-0.3,0.5-0.6,1.1-0.9,1.6
		c-0.1,0.1-0.1,0.3-0.2,0.4c-0.1,0.2-0.2,0.4-0.3,0.5c-0.2,0.4-0.3,0.8-0.5,1.2c-1,3.1-1,5.8-0.7,8.4c0.1,1.4,0.4,2.7,0.6,4
		c0.2,0.8,0.8,1.3,1.8,1.7c0.6,0.2,1.2,0.3,1.9,0.3c0.6,0,1.3-0.1,1.9-0.2c0.4-0.1,0.9-0.3,1.3-0.4c0.6-0.2,1-0.5,1.4-0.8
		c0.7-0.6,1.1-1.3,1-1.9c-0.2-1.1-0.4-2.2-0.5-3.3c-0.2-2-0.1-3.9,0.4-5.3c0.1-0.2,0.1-0.3,0.2-0.5c0-0.1,0.1-0.2,0.1-0.2
		c0.1-0.1,0.1-0.2,0.2-0.4c0.3-0.5,0.5-1,0.8-1.5c0.6-1,1.1-2,1.7-3c0.7-1.2,1.4-2.4,2.1-3.6C124.1,78.8,124,78.1,123.5,77.3"/>
	<path class="st7" d="M77.5,69.3c-0.4,0.4-0.6,0.9-0.7,1.3c-0.1,0.3-0.1,0.7-0.1,1c0.1,0.5,0.3,0.9,0.6,1.4c0.4,0.5,0.9,0.8,1.4,1.1
		c1,0.5,2.3,0.7,3.6,0.5c2.5-0.3,5-0.7,7.5-1.1c8.4-1.2,16.7-2.4,25.1-3.5c2.2-0.3,4.5-0.6,6.7-0.9c1.3-0.2,2.4-0.7,3.1-1.5
		c0.4-0.4,0.7-0.9,0.8-1.4c0.1-0.5,0.1-1-0.1-1.4c-0.1-0.3-0.3-0.6-0.6-0.9c-0.3-0.4-0.8-0.7-1.3-1c-1-0.5-2.3-0.7-3.6-0.5
		c-2.2,0.3-4.5,0.6-6.7,0.9c-8.4,1.2-16.7,2.4-25.1,3.5c-2.5,0.4-5,0.7-7.5,1.1C79.3,68,78.2,68.6,77.5,69.3"/>
	<path class="st7" d="M77.5,57.9c-0.4,0.4-0.6,0.8-0.7,1.3c-0.1,0.3-0.1,0.7-0.1,1c0.1,0.5,0.3,0.9,0.6,1.3c0.4,0.5,0.9,0.8,1.4,1.1
		c1,0.5,2.3,0.7,3.6,0.5c2.5-0.4,5-0.7,7.5-1c8.4-1.2,16.7-2.3,25.1-3.5c2.2-0.3,4.5-0.6,6.7-0.9c1.3-0.2,2.4-0.7,3.1-1.4
		c0.4-0.4,0.7-0.9,0.8-1.4c0.1-0.5,0-1-0.1-1.4c-0.1-0.3-0.3-0.6-0.6-0.9c-0.3-0.4-0.8-0.7-1.4-1c-1-0.5-2.3-0.7-3.6-0.5
		c-2.2,0.3-4.5,0.6-6.7,0.9c-8.4,1.2-16.7,2.3-25.1,3.5c-2.5,0.3-5,0.7-7.5,1C79.3,56.7,78.2,57.2,77.5,57.9"/>
	<path class="st7" d="M77.5,46.9c-0.4,0.4-0.6,0.9-0.7,1.3c-0.1,0.3-0.1,0.7-0.1,1c0.1,0.5,0.3,1,0.6,1.4c0.4,0.5,0.8,0.9,1.4,1.2
		c1,0.5,2.2,0.7,3.5,0.5c2.4-0.4,4.8-0.7,7.3-1.1c8.1-1.2,16.2-2.4,24.3-3.6c2.2-0.3,4.3-0.6,6.5-1c1.3-0.2,2.3-0.8,3-1.5
		c0.4-0.4,0.7-1,0.8-1.5c0.1-0.5,0.1-1-0.1-1.5c-0.1-0.3-0.3-0.7-0.5-0.9c-0.3-0.4-0.8-0.8-1.3-1c-1-0.5-2.2-0.7-3.5-0.6
		c-2.2,0.3-4.3,0.6-6.5,1c-8.1,1.2-16.2,2.4-24.3,3.6c-2.4,0.4-4.8,0.7-7.3,1.1C79.2,45.6,78.2,46.2,77.5,46.9"/>
	<path class="st9" d="M124.8,75.6c0.4,0.5,0.6,1,0.7,1.6c0.1,0.4,0.1,0.8,0.1,1.2c-0.1,0.6-0.3,1.1-0.6,1.6c-0.4,0.5-0.9,1-1.4,1.4
		c-1,0.6-2.3,0.8-3.6,0.6c-2.5-0.4-5-0.8-7.5-1.3c-8.4-1.4-16.7-2.8-25.1-4.2c-2.2-0.4-4.5-0.8-6.7-1.1c-1.3-0.2-2.4-0.9-3.1-1.7
		c-0.4-0.5-0.7-1.1-0.8-1.7c-0.1-0.6,0-1.2,0.1-1.7c0.1-0.4,0.3-0.8,0.6-1.1c0.3-0.5,0.8-0.9,1.3-1.2c1-0.6,2.3-0.8,3.6-0.6
		c2.2,0.4,4.5,0.7,6.7,1.1c8.4,1.4,16.7,2.8,25.1,4.2c2.5,0.4,5,0.8,7.5,1.2C123,74,124.1,74.7,124.8,75.6"/>
	<path class="st9" d="M124.8,64.3c0.4,0.5,0.6,1,0.7,1.6c0.1,0.4,0.1,0.8,0.1,1.2c-0.1,0.6-0.3,1.1-0.6,1.6c-0.4,0.5-0.9,1-1.4,1.4
		c-1,0.6-2.3,0.8-3.6,0.6c-2.5-0.4-5-0.8-7.5-1.3c-8.4-1.4-16.7-2.8-25.1-4.2c-2.2-0.4-4.5-0.8-6.7-1.1c-1.3-0.2-2.4-0.9-3.1-1.7
		c-0.4-0.5-0.7-1.1-0.8-1.7c-0.1-0.6-0.1-1.2,0.1-1.7c0.1-0.4,0.3-0.8,0.6-1.1c0.3-0.5,0.8-0.9,1.3-1.2c1-0.6,2.3-0.8,3.6-0.6
		c2.2,0.4,4.5,0.7,6.7,1.1c8.4,1.4,16.7,2.8,25.1,4.2c2.5,0.4,5,0.8,7.5,1.2C123,62.7,124.1,63.4,124.8,64.3"/>
	<path class="st9" d="M124.8,53c0.4,0.5,0.6,1,0.7,1.6c0.1,0.4,0.1,0.8,0.1,1.2c-0.1,0.6-0.3,1.1-0.6,1.6c-0.4,0.5-0.9,1-1.5,1.3
		c-1,0.6-2.3,0.9-3.6,0.6c-2.5-0.4-5-0.8-7.5-1.3c-8.4-1.4-16.7-2.8-25.1-4.2c-2.2-0.4-4.5-0.8-6.7-1.1c-1.3-0.2-2.4-0.9-3.1-1.7
		c-0.4-0.5-0.7-1.1-0.8-1.7c-0.1-0.6-0.1-1.2,0.1-1.7c0.1-0.4,0.3-0.8,0.6-1.1c0.3-0.5,0.8-0.9,1.3-1.2c1-0.6,2.3-0.9,3.6-0.6
		c2.2,0.4,4.5,0.7,6.7,1.1c8.4,1.4,16.7,2.8,25.1,4.2c2.5,0.4,5,0.8,7.5,1.2C123,51.4,124.1,52.1,124.8,53"/>
	<path class="st9" d="M123.8,41.5c0.1,0.4,0.2,0.9,0.2,1.5c0,0.4,0,0.8-0.1,1.2c-0.1,0.6-0.3,1.1-0.5,1.6c-0.2,0.6-0.5,1.1-0.9,1.4
		c-0.7,0.6-1.4,0.9-2,0.8c-1.2-0.2-17-2.9-18.7-3.1c-0.9-0.1-2-0.7-2.3-1.5c-0.2-0.5-0.2-1-0.2-1.6c0-0.6,0.1-1.1,0.2-1.7
		c0.1-0.4,0.2-0.8,0.4-1.1c0.2-0.5,0.5-0.9,0.8-1.3c0.6-0.7,2.2-0.9,3.5-0.7c2.3,0.3,12.5,2,15.4,2.6
		C120.6,39.7,123.6,40.7,123.8,41.5"/>
	<path class="st9" d="M79.6,91.8v8.2c0,7.2,7.3,10.1,21.5,10.1c13.4,0,21.5-2.8,21.5-10.1v-8.2H79.6z"/>
</g>
</svg>
