<?xml version="1.0" encoding="utf-8"?>
<!-- Generator: Adobe Illustrator 22.1.0, SVG Export Plug-In . SVG Version: 6.00 Build 0)  -->
<svg version="1.1" id="layer_1" xmlns="http://www.w3.org/2000/svg" xmlns:xlink="http://www.w3.org/1999/xlink" x="0px" y="0px"
	 viewBox="0 0 600 402" style="enable-background:new 0 0 600 402;" xml:space="preserve">
<style type="text/css">
	.st0{fill:#FFFFFF;}
	.st1{fill:#CDDCF5;}
	.st2{fill:#D3E0F6;}
	.st3{fill:#F7DDE2;}
	.st4{fill:#BCD1F2;}
	.st5{fill:#8EB4EA;}
	.st6{fill:#659EE3;}
	.st7{fill:#E5ECF9;}
	.st8{fill:#F6DADF;}
	.st9{fill:#FFFEFF;}
	.st10{fill:#3A8DDE;}
	.st11{opacity:0.41;}
</style>
<g>
	<g>
		<g>
			<g>
				<g>
					<path class="st0" d="M165.8,188.3c-2.5,0-5-0.9-6.9-2.7c-2.9-2.7-7.6-2.7-10.5,0c-0.5,0.5-1.3,0.4-1.7-0.1
						c-0.5-0.5-0.4-1.3,0.1-1.7c3.8-3.5,10-3.5,13.8,0c2.9,2.7,7.6,2.7,10.5,0c3.8-3.5,10-3.5,13.8,0c2.9,2.7,7.6,2.7,10.5,0
						c3.8-3.5,10-3.5,13.8,0c0.5,0.5,0.5,1.2,0.1,1.7c-0.5,0.5-1.2,0.5-1.7,0.1c-2.9-2.7-7.6-2.7-10.5,0c-3.8,3.5-10,3.5-13.8,0
						c-2.9-2.7-7.6-2.7-10.5,0C170.8,187.5,168.3,188.3,165.8,188.3z"/>
				</g>
			</g>
		</g>
		<g>
			<g>
				<g>
					<path class="st0" d="M210.8,232c-2.5,0-5-0.9-6.9-2.6c-2.9-2.7-7.6-2.7-10.5,0c-0.5,0.5-1.3,0.4-1.7-0.1
						c-0.5-0.5-0.4-1.3,0.1-1.7c3.8-3.5,10-3.5,13.8,0c2.9,2.7,7.6,2.7,10.5,0c3.8-3.5,10-3.5,13.8,0c2.9,2.7,7.6,2.7,10.5,0
						c3.8-3.5,10-3.5,13.8,0c0.5,0.5,0.5,1.2,0.1,1.7c-0.5,0.5-1.2,0.5-1.7,0.1c-2.9-2.7-7.6-2.7-10.5,0c-3.8,3.5-10,3.5-13.8,0
						c-2.9-2.7-7.6-2.7-10.5,0C215.7,231.1,213.3,232,210.8,232z"/>
				</g>
			</g>
		</g>
		<g>
			<g>
				<g>
					<g>
						<g>
							<rect x="264" y="83.8" class="st0" width="8.2" height="293.3"/>
						</g>
					</g>
				</g>
				<g>
					<g>
						<g>
							<path class="st1" d="M276.8,83.8c0-4.8-3.9-8.7-8.7-8.7s-8.7,3.9-8.7,8.7s3.9,8.7,8.7,8.7C272.9,92.4,276.8,88.6,276.8,83.8z
								"/>
						</g>
					</g>
				</g>
				<g>
					<g>
						<g>
							<g>
								<path class="st0" d="M273.1,72.3l-5,11.4l-5-11.4l3.3-27.4c0.2-2.1,3.2-2.1,3.5,0L273.1,72.3z"/>
							</g>
						</g>
						<g>
							<g>
								<path class="st2" d="M268.1,83.8l-5-11.4l3.1-25.5c0.1-1.2,1.9-1.1,1.9,0.1V83.8z"/>
							</g>
						</g>
					</g>
					<g>
						<g>
							<g>
								<path class="st0" d="M255.7,85.2l12.4-1.4l-7.4,10l-27.9,12.4c-1.9,0.8-3.4-1.8-1.7-3L255.7,85.2z"/>
							</g>
						</g>
						<g>
							<g>
								<path class="st2" d="M268.1,83.8l-7.4,10l-26.1,11.5c-1.1,0.5-1.9-1.1-0.9-1.7L268.1,83.8z"/>
							</g>
						</g>
					</g>
					<g>
						<g>
							<g>
								<path class="st0" d="M280.5,85.2l-12.4-1.4l7.4,10l26.4,11.7c2.1,0.9,3.7-1.9,1.9-3.3L280.5,85.2z"/>
							</g>
						</g>
						<g>
							<g>
								<path class="st2" d="M268.1,83.8l7.4,10l26.1,11.5c1.1,0.5,1.9-1.1,0.9-1.7L268.1,83.8z"/>
							</g>
						</g>
					</g>
				</g>
				<g>
					<g>
						<g>
							<rect x="259.4" y="377.1" class="st0" width="17.4" height="7.5"/>
						</g>
					</g>
				</g>
			</g>
			<g>
				<g>
					<g>
						<g>
							<rect x="221.7" y="136.2" class="st0" width="6" height="243.5"/>
						</g>
					</g>
				</g>
				<g>
					<g>
						<g>
							<path class="st1" d="M231,136.2c0-3.5-2.8-6.3-6.3-6.3s-6.3,2.8-6.3,6.3s2.8,6.3,6.3,6.3S231,139.7,231,136.2z"/>
						</g>
					</g>
				</g>
				<g>
					<g>
						<g>
							<g>
								<path class="st0" d="M228.4,127.8l-3.6,8.4l-3.6-8.4l2.4-22.1c0.2-1.5,2.4-1.5,2.5,0L228.4,127.8z"/>
							</g>
						</g>
						<g>
							<g>
								<path class="st2" d="M224.7,136.2l-3.6-8.4l2.2-20.7c0.1-0.9,1.4-0.8,1.4,0.1L224.7,136.2L224.7,136.2z"/>
							</g>
						</g>
					</g>
					<g>
						<g>
							<g>
								<path class="st0" d="M215.6,137.2l9.1-1l-5.4,7.3l-20.4,9c-1.4,0.6-2.5-1.3-1.3-2.2L215.6,137.2z"/>
							</g>
						</g>
						<g>
							<g>
								<path class="st2" d="M224.7,136.2l-5.4,7.3l-19.1,8.4c-0.8,0.4-1.4-0.8-0.6-1.3L224.7,136.2z"/>
							</g>
						</g>
					</g>
					<g>
						<g>
							<g>
								<path class="st0" d="M233.8,137.2l-9.1-1l5.4,7.3l19.3,8.5c1.5,0.7,2.7-1.4,1.4-2.4L233.8,137.2z"/>
							</g>
						</g>
						<g>
							<g>
								<path class="st2" d="M224.7,136.2l5.4,7.3l19.1,8.4c0.8,0.4,1.4-0.8,0.6-1.3L224.7,136.2z"/>
							</g>
						</g>
					</g>
				</g>
				<g>
					<g>
						<g>
							<rect x="218.3" y="379.1" class="st0" width="12.7" height="5.5"/>
						</g>
					</g>
				</g>
			</g>
			<g>
				<g>
					<g>
						<g>
							<rect x="176.5" y="105.6" class="st0" width="7.3" height="272.9"/>
						</g>
					</g>
				</g>
				<g>
					<g>
						<g>
							<path class="st1" d="M187.9,105.6c0-4.3-3.5-7.7-7.7-7.7c-4.3,0-7.7,3.5-7.7,7.7c0,4.3,3.5,7.7,7.7,7.7
								S187.9,109.9,187.9,105.6z"/>
						</g>
					</g>
				</g>
				<g>
					<g>
						<g>
							<g>
								<path class="st0" d="M184.6,95.5l-4.4,10.2l-4.4-10.2l2.9-24.3c0.2-1.8,2.9-1.8,3.1,0L184.6,95.5z"/>
							</g>
						</g>
						<g>
							<g>
								<path class="st2" d="M180.2,105.6l-4.4-10.2l2.7-22.7c0.1-1.1,1.7-1,1.7,0.1V105.6z"/>
							</g>
						</g>
					</g>
					<g>
						<g>
							<g>
								<path class="st0" d="M169.2,106.8l11-1.2l-6.6,8.9l-24.8,11c-1.7,0.7-3-1.6-1.5-2.6L169.2,106.8z"/>
							</g>
						</g>
						<g>
							<g>
								<path class="st2" d="M180.2,105.6l-6.6,8.9l-23.2,10.2c-1,0.4-1.7-1-0.8-1.5L180.2,105.6z"/>
							</g>
						</g>
					</g>
					<g>
						<g>
							<g>
								<path class="st0" d="M191.2,106.8l-11-1.2l6.6,8.9l23.4,10.4c1.9,0.8,3.3-1.7,1.7-2.9L191.2,106.8z"/>
							</g>
						</g>
						<g>
							<g>
								<path class="st2" d="M180.2,105.6l6.6,8.9l23.2,10.2c1,0.4,1.7-1,0.8-1.5L180.2,105.6z"/>
							</g>
						</g>
					</g>
				</g>
				<g>
					<g>
						<g>
							<rect x="172.4" y="377.9" class="st0" width="15.5" height="6.6"/>
						</g>
					</g>
				</g>
			</g>
		</g>
		<g>
			<g>
				<path class="st0" d="M330.9,57.1c2.3,0,4.4,0.7,6.2,1.9c1.2-1.3,2.8-2.3,4.7-2.6c-0.1-0.5-0.1-1.1-0.1-1.6
					c0-6,4.9-10.9,10.9-10.9s10.9,4.9,10.9,10.9c0,0.9-0.1,1.7-0.3,2.6c0.8-0.2,1.6-0.2,2.5-0.2c6,0,10.9,5,10.9,10.9h-56.4
					C320,62.1,324.9,57.1,330.9,57.1z"/>
			</g>
		</g>
		<g>
			<g>
				<path class="st0" d="M402.2,125.4c6.5,0,12.5,1.9,17.4,5.3c3.4-3.8,8-6.5,13.2-7.4c-0.2-1.5-0.3-3-0.3-4.5
					c0-17,13.8-30.7,30.7-30.7c17,0,30.7,13.8,30.7,30.7c0,2.5-0.3,4.9-0.9,7.3c2.3-0.5,4.6-0.7,7.1-0.7c17,0,30.7,14.1,30.7,30.9
					H371.4C371.5,139.5,385.2,125.4,402.2,125.4z"/>
			</g>
		</g>
		<g>
			<g>
				<path class="st0" d="M330.7,152.9c1.8,0,3.4,0.5,4.8,1.5c0.9-1.1,2.2-1.8,3.6-2c-0.1-0.4-0.1-0.8-0.1-1.2c0-4.7,3.8-8.5,8.5-8.5
					s8.5,3.8,8.5,8.5c0,0.7-0.1,1.4-0.2,2c0.6-0.1,1.3-0.2,2-0.2c4.7,0,8.5,3.9,8.5,8.5h-44C322.2,156.8,326,152.9,330.7,152.9z"/>
			</g>
		</g>
		<g>
			<g>
				<path class="st0" d="M33.5,42C40,42,46,43.9,51,47.4c3.4-3.8,8-6.6,13.3-7.4c-0.2-1.5-0.3-3-0.3-4.5c0-17,13.8-30.8,30.8-30.8
					s30.8,13.8,30.8,30.8c0,2.5-0.3,4.9-0.9,7.3c2.3-0.5,4.7-0.7,7.1-0.7c17,0,30.8,14.2,30.8,31H2.7C2.7,56.1,16.5,42,33.5,42z"/>
			</g>
		</g>
		<g id="XMLID_472_">
			<g id="XMLID_486_">
				<g>
					<polygon class="st0" points="333.7,186.8 263.5,186.8 263.5,241.3 256.7,245.1 256.7,384.1 410.7,384.1 410.7,245.1 					"/>
				</g>
			</g>
			<g id="XMLID_485_">
				<g>
					<polygon class="st1" points="340.5,384.1 186.5,384.1 186.5,245.1 263.5,186.8 340.5,245.1 					"/>
				</g>
			</g>
			<g id="XMLID_484_">
				<g>
					<rect x="340.5" y="245.1" class="st3" width="70.2" height="139"/>
				</g>
			</g>
			<g id="XMLID_481_">
				<g id="XMLID_483_">
					<g>
						<g>
							<polygon class="st4" points="207.1,384.1 207.1,257.2 263.5,210.2 320,257.2 320,384.1 							"/>
						</g>
					</g>
				</g>
				<g id="XMLID_482_">
					<g>
						<g>
							<polygon class="st5" points="207.1,384.1 207.1,257.2 263.5,210.2 320,257.2 320,384.1 							"/>
						</g>
					</g>
				</g>
			</g>
			<g id="XMLID_480_">
				<g>
					<rect x="207.1" y="257.2" class="st6" width="10" height="126.9"/>
				</g>
			</g>
			<g id="XMLID_479_">
				<g>
					<polygon class="st6" points="207.1,257.2 217.1,259.6 270.4,216 263.5,210.2 					"/>
				</g>
			</g>
			<g id="XMLID_478_">
				<g>
					<g>
						<rect x="210.3" y="282.7" class="st6" width="109.6" height="9.7"/>
					</g>
				</g>
			</g>
			<g id="XMLID_477_">
				<g>
					<g>
						<rect x="210.3" y="335.5" class="st6" width="109.6" height="9.7"/>
					</g>
				</g>
			</g>
			<g id="XMLID_476_">
				<g>
					<g>
						<rect x="259.6" y="215.5" class="st6" width="9.7" height="168.6"/>
					</g>
				</g>
			</g>
			<g id="XMLID_475_">
				<g>
					<rect x="365.4" y="265.7" class="st5" width="25.3" height="38.9"/>
				</g>
			</g>
			<g id="XMLID_474_">
				<g>
					<rect x="365.4" y="326" class="st5" width="25.3" height="38.9"/>
				</g>
			</g>
			<g id="XMLID_473_">
				<g>
					<polygon class="st1" points="328.6,192.3 389,238.4 348.3,238.4 287.9,192.3 					"/>
				</g>
			</g>
		</g>
		<g>
			<g>
				<g>
					<g>
						<rect x="455.8" y="286.2" class="st5" width="9" height="98"/>
					</g>
				</g>
			</g>
			<g>
				<g>
					<polygon class="st0" points="420.7,280 497.1,280 519.3,238.2 442.9,238.2 					"/>
				</g>
			</g>
			<g>
				<g>
					<polygon class="st1" points="428.5,275.1 445.7,241.7 511.5,241.7 494.3,275.1 					"/>
				</g>
			</g>
			<g>
				<g>
					<polygon class="st5" points="497.1,280 497.1,286.9 519.3,245.2 519.3,238.2 					"/>
				</g>
			</g>
			<g>
				<g>
					<polygon class="st0" points="488.4,256.4 497.4,238.3 490.7,238.3 481.8,256.4 433.1,256.4 430.1,262.1 430.1,262.2 
						478.7,262.2 469.2,279.8 475.8,279.8 485.3,262.2 506.5,262.2 509.7,256.4 					"/>
				</g>
			</g>
			<g>
				<g>
					<polygon class="st0" points="462.4,256.4 471.4,238.3 464.8,238.3 455.8,256.4 					"/>
				</g>
			</g>
			<g>
				<g>
					<polygon class="st0" points="452.7,262.2 443.2,279.8 449.8,279.8 459.3,262.2 					"/>
				</g>
			</g>
			<g>
				<g>
					<rect x="420.7" y="280" class="st5" width="76.4" height="7"/>
				</g>
			</g>
		</g>
		<g>
			<g>
				<g>
					<g>
						<rect x="409.5" y="366.1" class="st5" width="14.1" height="18.1"/>
					</g>
				</g>
			</g>
			<g>
				<g>
					<polygon class="st0" points="364.1,358.9 469,358.9 499.5,301.6 394.6,301.6 					"/>
				</g>
			</g>
			<g>
				<g>
					<polygon class="st1" points="374.8,352.2 398.5,306.4 488.8,306.4 465.2,352.2 					"/>
				</g>
			</g>
			<g>
				<g>
					<polygon class="st5" points="469,358.9 469,368.5 499.5,311.1 499.5,301.6 					"/>
				</g>
			</g>
			<g>
				<g>
					<polygon class="st0" points="457.1,326.5 469.4,301.7 460.3,301.7 448,326.5 381.1,326.5 377.1,334.4 377,334.5 443.7,334.5 
						430.7,358.6 439.8,358.6 452.8,334.5 482,334.5 486.3,326.5 					"/>
				</g>
			</g>
			<g>
				<g>
					<polygon class="st0" points="421.4,326.5 433.7,301.7 424.6,301.7 412.3,326.5 					"/>
				</g>
			</g>
			<g>
				<g>
					<polygon class="st0" points="408.1,334.5 395,358.6 404.1,358.6 417.2,334.5 					"/>
				</g>
			</g>
			<g>
				<g>
					<rect x="364.1" y="358.9" class="st5" width="104.9" height="9.6"/>
				</g>
			</g>
		</g>
		<g>
			<g>
				<g>
					<g>
						<path class="st1" d="M414.7,76.1h6c4.9,0,8.9-4,8.9-8.9v-14h-2.7v14c0,3.4-2.8,6.2-6.2,6.2h-6c-3.4,0-6.2-2.8-6.2-6.2v-14
							c0-0.1,0-0.3,0-0.4l-2.7-0.2c0,0.2,0,0.4,0,0.6v14C405.8,72.1,409.8,76.1,414.7,76.1z"/>
					</g>
				</g>
			</g>
			<g>
				<g>
					<g>
						<g>
							<g>
								<path class="st3" d="M410.4,24.7c0,1,0.8,1.9,1.9,1.9l0,0c1,0,1.9-0.8,1.9-1.9v-9.2c0-1-0.8-1.8-1.9-1.8l0,0
									c-1,0-1.9,0.8-1.9,1.9V24.7z"/>
							</g>
						</g>
					</g>
					<g>
						<g>
							<g>
								<path class="st3" d="M400.3,24.7c0,1,0.8,1.9,1.9,1.9l0,0c1,0,1.9-0.8,1.9-1.9v-9.2c0-1-0.8-1.8-1.9-1.8l0,0
									c-1,0-1.9,0.8-1.9,1.8V24.7z"/>
							</g>
						</g>
					</g>
				</g>
				<g>
					<g>
						<g>
							<g>
								<path class="st3" d="M405.1,45.5c0,1.1,0.9,2.1,2.1,2.1l0,0c1.1,0,2.1-0.9,2.1-2.1V35.2c0-1.1-0.9-2.1-2.1-2.1l0,0
									c-1.1,0-2.1,0.9-2.1,2.1V45.5z"/>
							</g>
						</g>
					</g>
				</g>
				<g>
					<g>
						<g>
							<path class="st1" d="M417,25.2v5.6c0,5.6-4.4,10.2-9.8,10.2s-9.8-4.6-9.8-10.2v-5.6H417z"/>
						</g>
					</g>
				</g>
				<g>
					<g>
						<g>
							<g>
								<path class="st3" d="M409.2,27.4v7.7c0,1.1-0.9,2.1-2.1,2.1l0,0c-1.1,0-2.1-0.9-2.1-2.1v-7.7
									C405,27.4,409.2,27.4,409.2,27.4z"/>
							</g>
						</g>
					</g>
				</g>
				<g>
					<g>
						<g>
							<path class="st3" d="M395.1,25.2c0,1.2,1,2.2,2.2,2.2H417c1.2,0,2.2-1,2.2-2.2l0,0c0-1.2-1-2.2-2.2-2.2h-19.7
								C396.1,23,395.1,24,395.1,25.2L395.1,25.2z"/>
						</g>
					</g>
				</g>
			</g>
			<g>
				<g>
					<g>
						<path class="st0" d="M405.3,55.3h3.7c1,0,1.7-0.8,1.7-1.7v-8.1c0-1-0.8-1.7-1.7-1.7h-3.7c-1,0-1.7,0.8-1.7,1.7v8.1
							C403.6,54.5,404.4,55.3,405.3,55.3z"/>
					</g>
				</g>
			</g>
			<g>
				<g>
					<g>
						<g>
							<path class="st2" d="M421.3,43.6c0,6.8,3.1,9.7,7,9.7c3.8,0,7-2.9,7-9.7s-7-14.9-7-14.9S421.3,36.8,421.3,43.6z"/>
						</g>
					</g>
				</g>
			</g>
		</g>
		<g>
			<g>
				<g>
					<path class="st5" d="M364.5,104.6c0,9.6-7.8,17.3-17.3,17.3c-9.6,0-17.3-7.8-17.3-17.3c0-9.6,7.8-17.3,17.3-17.3
						C356.7,87.2,364.5,95,364.5,104.6z"/>
				</g>
			</g>
			<g>
				<g>
					<g>
						<path class="st0" d="M335.2,107.6c0.8,0.9,2.3,1.2,4,1.3c2.9,0.1,4.4,0.2,7.3,0.2c0,2.6,0,4,0,6.6c-2.1,0-3.2,0-5.3-0.2
							c-1.4-0.1-2.6-0.9-3.2-2.2C336.8,111,336.3,109.8,335.2,107.6z"/>
					</g>
				</g>
				<g>
					<g>
						<path class="st1" d="M343.4,106.6c-1.2-2.3-1.8-3.5-3.1-5.8l0,0l0,0l0,0c-2.6,0.1-3.8,0.1-6.4,0.2c0.8,0.4,1.2,0.7,2,1.1
							c-0.2,0.4-0.3,0.5-0.5,0.9c-1.9,3.1-0.4,5.5,3,5.6c0.9,0,1.9,0.1,3,0.1c-1-0.1-1.5-0.7-1.1-1.5c0.4-0.7,0.6-1.1,1-1.8
							C342.2,105.9,342.6,106.1,343.4,106.6z"/>
					</g>
				</g>
				<g>
					<g>
						<path class="st0" d="M350.5,91.5c-1.2,0.2-2.1,1.5-2.9,3c-1.5,2.6-2.2,4-3.7,6.6c-2.2-1.3-3.3-2-5.5-3.2
							c1.1-1.9,1.6-2.9,2.7-4.8c0.7-1.2,1.9-2,3.3-2C346.8,91.2,348,91.2,350.5,91.5z"/>
					</g>
				</g>
				<g>
					<g>
						<path class="st1" d="M347.4,99.5c2.6,0.1,3.9,0.1,6.4,0.2l0,0l0,0l0,0c1.2-2.3,1.9-3.4,3.1-5.6c-0.8,0.4-1.2,0.6-2,1
							c-0.2-0.4-0.3-0.6-0.5-0.9c-1.8-3.4-4.6-3.4-6.3-0.3c-0.4,0.8-0.9,1.7-1.5,2.7c0.6-0.8,1.3-1.1,1.8-0.2c0.4,0.7,0.6,1.1,1,1.9
							C348.6,98.8,348.2,99,347.4,99.5z"/>
					</g>
				</g>
				<g>
					<g>
						<path class="st0" d="M356.3,113.1c0.4-1.2-0.2-2.6-1-4c-1.5-2.5-2.2-3.8-3.7-6.4c2.2-1.3,3.3-2,5.5-3.2
							c1.1,1.9,1.6,2.8,2.7,4.6c0.7,1.1,0.7,2.5,0,3.6C358.4,109.9,357.7,111,356.3,113.1z"/>
					</g>
				</g>
				<g>
					<g>
						<path class="st1" d="M351.1,106.7c-1.3,2.3-2,3.5-3.4,5.8l0,0l0,0l0,0c1.3,2.3,2,3.4,3.3,5.6c0-1,0-1.4,0-2.4
							c0.4,0,0.6,0,1-0.1c3.7-0.2,5-2.8,3.3-5.7c-0.5-0.7-0.9-1.6-1.5-2.6c0.4,0.9,0.2,1.7-0.7,1.7c-0.8,0-1.2,0-2.1,0.1
							C351.1,108.1,351.1,107.7,351.1,106.7z"/>
					</g>
				</g>
			</g>
		</g>
		<g>
			<g>
				<g>
					<path class="st3" d="M419.9,203.8h-9.5c-0.6,0-1.1,0.5-1.1,1c0,0.6,0.5,1,1.1,1h9.5c0.6,0,1.1-0.5,1.1-1
						S420.5,203.8,419.9,203.8z"/>
				</g>
			</g>
			<g>
				<g>
					<path class="st3" d="M420.4,201.7h-10.6c-0.6,0-1,0.5-1,1c0,0.6,0.5,1,1,1h10.6c0.6,0,1-0.5,1-1
						C421.5,202.2,421,201.7,420.4,201.7z"/>
				</g>
			</g>
			<g>
				<g>
					<path class="st1" d="M410.3,206.4c0,2.2,1.8,3.9,3.9,3.9h1.9c2.2,0,3.9-1.8,3.9-3.9v-0.5h-9.7L410.3,206.4L410.3,206.4z"/>
				</g>
			</g>
			<g>
				<g>
					<g>
						<path class="st7" d="M406.9,188.1c0.1-0.2,0.2-0.3,0.3-0.5c0.1-0.1,0.2-0.3,0.3-0.4c0.2-0.2,0.3-0.3,0.6-0.4
							c0.2-0.1,0.5-0.2,0.8-0.2c0.4,0,0.9,0.2,1.1,0.5c0.5,0.6,0.8,1.2,1.1,1.9c0.5,1,0.9,2.1,1.2,3.1c0.1,0.3,0.1,0.5,0.2,0.8
							s0.1,0.5,0.2,0.8c0.1,0.5,0.2,1,0.2,1.5c0.1,0.5,0.2,1.1,0.2,1.6c0,0.3-0.1,0.6-0.4,0.9c-0.2,0.1-0.4,0.3-0.7,0.3
							c-0.2,0.1-0.5,0.1-0.7,0.1s-0.4,0-0.5,0c-0.2,0-0.5-0.1-0.7-0.2c-0.4-0.2-0.6-0.4-0.6-0.7c-0.1-0.5-0.2-1.1-0.2-1.6
							c-0.1-0.5-0.2-1-0.2-1.5c0-0.2-0.1-0.5-0.1-0.7s-0.1-0.4-0.2-0.7c-0.3-0.9-0.6-1.8-1-2.6c-0.2-0.5-0.5-1-0.8-1.4
							C406.7,188.6,406.7,188.4,406.9,188.1z"/>
					</g>
				</g>
				<g>
					<g>
						<path class="st7" d="M423.8,190c-0.1-0.2-0.3-0.3-0.4-0.4s-0.3-0.2-0.4-0.3c-0.2-0.1-0.5-0.2-0.7-0.3
							c-0.3-0.1-0.5-0.1-0.7-0.1c-0.4,0-0.7,0.2-0.9,0.4c-0.3,0.5-0.6,1-0.8,1.4s-0.5,0.8-0.7,1.2c-0.1,0.2-0.2,0.4-0.3,0.6
							c0,0.1-0.1,0.1-0.1,0.2s-0.1,0.1-0.1,0.2c-0.1,0.1-0.1,0.3-0.2,0.4c-0.4,1.2-0.4,2.3-0.3,3.3c0.1,0.5,0.1,1.1,0.2,1.6
							c0.1,0.3,0.3,0.5,0.7,0.6c0.2,0.1,0.5,0.1,0.7,0.1s0.5,0,0.7-0.1c0.2,0,0.3-0.1,0.5-0.2s0.4-0.2,0.6-0.3
							c0.3-0.2,0.4-0.5,0.4-0.7c-0.1-0.4-0.2-0.9-0.2-1.3c-0.1-0.8,0-1.5,0.1-2c0-0.1,0-0.1,0.1-0.2V194c0,0,0-0.1,0.1-0.1
							c0.1-0.2,0.2-0.4,0.3-0.6c0.2-0.4,0.4-0.8,0.7-1.2c0.3-0.5,0.5-0.9,0.8-1.4C424.1,190.6,424,190.3,423.8,190z"/>
					</g>
				</g>
				<g>
					<g>
						<path class="st7" d="M406,186.9c-0.1,0.2-0.2,0.3-0.3,0.5c0,0.1,0,0.3,0,0.4c0,0.2,0.1,0.4,0.2,0.5c0.1,0.2,0.3,0.3,0.6,0.4
							c0.4,0.2,0.9,0.3,1.4,0.2c1-0.1,1.9-0.3,2.9-0.4c3.2-0.5,6.5-0.9,9.7-1.4c0.9-0.1,1.7-0.2,2.6-0.4c0.5-0.1,0.9-0.3,1.2-0.6
							c0.2-0.2,0.3-0.4,0.3-0.6s0-0.4,0-0.6c0-0.1-0.1-0.2-0.2-0.4c-0.1-0.2-0.3-0.3-0.5-0.4c-0.4-0.2-0.9-0.3-1.4-0.2
							c-0.9,0.1-1.7,0.2-2.6,0.4c-3.2,0.5-6.5,0.9-9.7,1.4c-1,0.1-1.9,0.3-2.9,0.4C406.7,186.4,406.3,186.6,406,186.9z"/>
					</g>
				</g>
				<g>
					<g>
						<path class="st7" d="M406,182.5c-0.1,0.2-0.2,0.3-0.3,0.5c0,0.1,0,0.3,0,0.4c0,0.2,0.1,0.4,0.2,0.5c0.1,0.2,0.3,0.3,0.6,0.4
							c0.4,0.2,0.9,0.3,1.4,0.2c1-0.1,1.9-0.3,2.9-0.4c3.2-0.5,6.5-0.9,9.7-1.4c0.9-0.1,1.7-0.2,2.6-0.4c0.5-0.1,0.9-0.3,1.2-0.6
							c0.2-0.2,0.3-0.4,0.3-0.6s0-0.4,0-0.5s-0.1-0.2-0.2-0.4c-0.1-0.2-0.3-0.3-0.5-0.4c-0.4-0.2-0.9-0.3-1.4-0.2
							c-0.9,0.1-1.7,0.2-2.6,0.4c-3.2,0.5-6.5,0.9-9.7,1.4c-1,0.1-1.9,0.3-2.9,0.4C406.7,182,406.3,182.2,406,182.5z"/>
					</g>
				</g>
				<g>
					<g>
						<path class="st7" d="M406,178.2c-0.1,0.2-0.2,0.3-0.3,0.5c0,0.1,0,0.3,0,0.4c0,0.2,0.1,0.4,0.2,0.5c0.1,0.2,0.3,0.3,0.5,0.5
							c0.4,0.2,0.9,0.3,1.3,0.2c0.9-0.1,1.9-0.3,2.8-0.4c3.1-0.5,6.3-0.9,9.4-1.4c0.8-0.1,1.7-0.3,2.5-0.4c0.5-0.1,0.9-0.3,1.1-0.6
							c0.2-0.2,0.3-0.4,0.3-0.6s0-0.4,0-0.6c0-0.1-0.1-0.3-0.2-0.4c-0.1-0.2-0.3-0.3-0.5-0.4c-0.4-0.2-0.9-0.3-1.3-0.2
							c-0.8,0.1-1.7,0.3-2.5,0.4c-3.1,0.5-6.3,0.9-9.4,1.4c-0.9,0.1-1.9,0.3-2.8,0.4C406.7,177.7,406.3,177.9,406,178.2z"/>
					</g>
				</g>
				<g>
					<g>
						<path class="st0" d="M424.3,189.3c0.1,0.2,0.2,0.4,0.3,0.6c0,0.2,0,0.3,0,0.5s-0.1,0.4-0.2,0.6s-0.3,0.4-0.6,0.5
							c-0.4,0.2-0.9,0.3-1.4,0.2c-1-0.2-1.9-0.3-2.9-0.5c-3.2-0.5-6.5-1.1-9.7-1.6c-0.9-0.1-1.7-0.3-2.6-0.4
							c-0.5-0.1-0.9-0.3-1.2-0.7c-0.2-0.2-0.3-0.4-0.3-0.7c0-0.2,0-0.4,0-0.7c0-0.1,0.1-0.3,0.2-0.4c0.1-0.2,0.3-0.3,0.5-0.5
							c0.4-0.2,0.9-0.3,1.4-0.2c0.9,0.1,1.7,0.3,2.6,0.4c3.2,0.5,6.5,1.1,9.7,1.6c1,0.2,1.9,0.3,2.9,0.5
							C423.6,188.7,424,189,424.3,189.3z"/>
					</g>
				</g>
				<g>
					<g>
						<path class="st0" d="M424.3,184.9c0.1,0.2,0.2,0.4,0.3,0.6c0,0.2,0,0.3,0,0.5s-0.1,0.4-0.2,0.6s-0.3,0.4-0.6,0.5
							c-0.4,0.2-0.9,0.3-1.4,0.2c-1-0.2-1.9-0.3-2.9-0.5c-3.2-0.5-6.5-1.1-9.7-1.6c-0.9-0.1-1.7-0.3-2.6-0.4
							c-0.5-0.1-0.9-0.3-1.2-0.7c-0.2-0.2-0.3-0.4-0.3-0.7c0-0.2,0-0.4,0-0.7c0-0.2,0.1-0.3,0.2-0.4c0.1-0.2,0.3-0.3,0.5-0.5
							c0.4-0.2,0.9-0.3,1.4-0.2c0.9,0.1,1.7,0.3,2.6,0.4c3.2,0.5,6.5,1.1,9.7,1.6c1,0.2,1.9,0.3,2.9,0.5
							C423.6,184.3,424,184.6,424.3,184.9z"/>
					</g>
				</g>
				<g>
					<g>
						<path class="st0" d="M424.3,180.5c0.1,0.2,0.2,0.4,0.3,0.6c0,0.2,0,0.3,0,0.5s-0.1,0.4-0.2,0.6s-0.3,0.4-0.6,0.5
							c-0.4,0.2-0.9,0.3-1.4,0.2c-1-0.2-1.9-0.3-2.9-0.5c-3.2-0.5-6.5-1.1-9.7-1.6c-0.9-0.1-1.7-0.3-2.6-0.4
							c-0.5-0.1-0.9-0.3-1.2-0.7c-0.2-0.2-0.3-0.4-0.3-0.7c0-0.2,0-0.4,0-0.7c0-0.1,0.1-0.3,0.2-0.4c0.1-0.2,0.3-0.3,0.5-0.5
							c0.4-0.2,0.9-0.3,1.4-0.2c0.9,0.1,1.7,0.3,2.6,0.4c3.2,0.5,6.5,1.1,9.7,1.6c1,0.2,1.9,0.3,2.9,0.5
							C423.6,179.9,424,180.2,424.3,180.5z"/>
					</g>
				</g>
				<g>
					<g>
						<path class="st0" d="M424,176.1c0.1,0.2,0.1,0.4,0.1,0.6c0,0.1,0,0.3,0,0.5s-0.1,0.4-0.2,0.6s-0.2,0.4-0.3,0.6
							c-0.3,0.2-0.6,0.4-0.8,0.3c-0.5-0.1-6.6-1.1-7.2-1.2c-0.4,0-0.8-0.3-0.9-0.6c-0.1-0.2-0.1-0.4-0.1-0.6s0-0.4,0.1-0.7
							c0-0.2,0.1-0.3,0.2-0.4c0.1-0.2,0.2-0.4,0.3-0.5c0.2-0.3,0.8-0.4,1.4-0.3c0.9,0.1,4.8,0.8,6,1
							C422.7,175.4,423.9,175.8,424,176.1z"/>
					</g>
				</g>
			</g>
			<g>
				<g>
					<path class="st0" d="M406.8,195.6v3.2c0,2.8,2.8,3.9,8.3,3.9c5.2,0,8.3-1.1,8.3-3.9v-3.2H406.8z"/>
				</g>
			</g>
		</g>
		<g>
			<g>
				<g>
					<path class="st5" d="M105.9,112C89.4,112,76,125.4,76,141.9s13.4,29.9,29.9,29.9s29.9-13.4,29.9-29.9S122.4,112,105.9,112z"/>
				</g>
			</g>
			<g>
				<g>
					<g>
						<polygon class="st0" points="100,159.8 104.1,142.9 93.1,142.9 102.8,123.9 113.8,123.9 107.7,134 118.6,134 						"/>
					</g>
				</g>
			</g>
		</g>
		<g>
			<g>
				<g>
					<path class="st1" d="M153.1,384.2h277.3c3.4,0,6.1,2.7,6.1,6.1v0.1c0,3.4-2.7,6.1-6.1,6.1H153.1c-3.4,0-6.1-2.7-6.1-6.1v-0.1
						C147,386.9,149.7,384.2,153.1,384.2z"/>
				</g>
			</g>
		</g>
		<g>
			<g>
				<g>
					<path class="st1" d="M452.4,384.2h42.2c3.4,0,6.1,2.7,6.1,6.1v0.1c0,3.4-2.7,6.1-6.1,6.1h-42.2c-3.4,0-6.1-2.7-6.1-6.1v-0.1
						C446.4,386.9,449.1,384.2,452.4,384.2z"/>
				</g>
			</g>
		</g>
		<g>
			<g>
				<g>
					<g>
						<rect x="119.6" y="286.7" class="st5" width="9" height="98"/>
					</g>
				</g>
			</g>
			<g>
				<g>
					<polygon class="st0" points="163.8,280.4 87.4,280.4 65.1,238.6 141.6,238.6 					"/>
				</g>
			</g>
			<g>
				<g>
					<polygon class="st1" points="156,275.5 138.8,242.1 72.9,242.1 90.2,275.5 					"/>
				</g>
			</g>
			<g>
				<g>
					<polygon class="st5" points="87.4,280.4 87.4,287.4 65.1,245.6 65.1,238.6 					"/>
				</g>
			</g>
			<g>
				<g>
					<polygon class="st0" points="96,256.8 87.1,238.7 93.7,238.7 102.7,256.8 151.4,256.8 154.3,262.5 154.4,262.6 105.8,262.6 
						115.3,280.2 108.7,280.2 99.1,262.6 77.9,262.6 74.8,256.8 					"/>
				</g>
			</g>
			<g>
				<g>
					<polygon class="st0" points="122,256.8 113.1,238.7 119.7,238.7 128.6,256.8 					"/>
				</g>
			</g>
			<g>
				<g>
					<polygon class="st0" points="131.8,262.6 141.3,280.2 134.6,280.2 125.1,262.6 					"/>
				</g>
			</g>
			<g>
				<g>
					<rect x="87.3" y="280.3" class="st5" width="76.4" height="7"/>
				</g>
			</g>
		</g>
		<g>
			<g>
				<g>
					<g>
						<rect x="160.8" y="366.5" class="st5" width="14.1" height="18.1"/>
					</g>
				</g>
			</g>
			<g>
				<g>
					<polygon class="st0" points="220.3,359.3 115.4,359.3 85,302 189.9,302 					"/>
				</g>
			</g>
			<g>
				<g>
					<polygon class="st1" points="209.6,352.7 186,306.8 95.7,306.8 119.3,352.7 					"/>
				</g>
			</g>
			<g>
				<g>
					<polygon class="st5" points="115.4,359.3 115.4,368.9 85,311.6 85,302 					"/>
				</g>
			</g>
			<g>
				<g>
					<polygon class="st0" points="127.4,326.9 115.1,302.2 124.2,302.2 136.4,326.9 203.3,326.9 207.4,334.8 207.5,334.9 
						140.7,334.9 153.8,359.1 144.7,359.1 131.6,334.9 102.5,334.9 98.2,326.9 					"/>
				</g>
			</g>
			<g>
				<g>
					<polygon class="st0" points="163,326.9 150.7,302.2 159.8,302.2 172.1,326.9 					"/>
				</g>
			</g>
			<g>
				<g>
					<polygon class="st0" points="176.4,334.9 189.4,359.1 180.3,359.1 167.3,334.9 					"/>
				</g>
			</g>
			<g>
				<g>
					<rect x="115.5" y="359.3" class="st5" width="104.9" height="9.6"/>
				</g>
			</g>
		</g>
		<g>
			<g>
				<g>
					<path class="st1" d="M132,384.6H89.8c-3.4,0-6.1,2.7-6.1,6.1v0.1c0,3.4,2.7,6.1,6.1,6.1H132c3.4,0,6.1-2.7,6.1-6.1v-0.1
						C138.1,387.3,135.4,384.6,132,384.6z"/>
				</g>
			</g>
		</g>
		<g>
			<g>
				<g>
					<g>
						<path class="st6" d="M362.5,199.2c2,0,3.7-2.6,3.7-5.9c0-3.2-1.7-5.8-3.7-5.8s-3.7,2.6-3.7,5.9
							C358.9,196.6,360.5,199.2,362.5,199.2z"/>
					</g>
				</g>
			</g>
			<g>
				<g>
					<g>
						<path class="st6" d="M344.7,202c2.4-1.4,5-4.8,4-7.7c-2.3-7,3.1-9.5,5.8-10c2.7-0.5,5.1,0.2,6.6,1.4c2.4,2,1.7,5.3,0.3,8
							c1.5,0.8,2.2,2.7,1.3,4c-1.9,3-0.3,7,0.8,9.3c1.8,3.8-0.7,8.6-5,10.7c-4.3,2.2-9.9,1.9-14.2,0c-2.1-1-4.1-2.4-5.1-4.2
							C337.2,209.5,340.3,204.5,344.7,202z"/>
					</g>
				</g>
			</g>
			<g>
				<g>
					<g>
						<path class="st8" d="M374.3,228.7c1,0.1,2.1,0.2,3.2,0.3c0.8,0,1.5-0.6,1.5-1.5c0-0.8-0.6-1.5-1.5-1.5
							c-5.3-0.1-9.2-1.7-11.7-4.6c-3.8-4.4-3.1-10.6-3.1-10.7c0.1-0.8-0.5-1.6-1.3-1.7s-1.6,0.5-1.7,1.3c0,0.3-0.9,7.6,3.8,13
							C366.2,226.3,369.8,228.1,374.3,228.7z"/>
					</g>
				</g>
			</g>
			<g>
				<g>
					<path class="st9" d="M361.7,207.9c1.4,0.2,2.4,1.5,2.2,2.9c0,0.1-0.6,5.8,2.8,9.8c1.7,2,4.2,3.3,7.3,3.8
						c-0.9,1.6-1.1,3.6-0.3,5.2c-4.6-0.7-8.3-2.6-10.9-5.7c-5-5.8-4.1-13.5-4-13.9C359,208.8,360.3,207.8,361.7,207.9z"/>
				</g>
			</g>
			<g>
				<g>
					<g>
						<path class="st8" d="M361.3,210.5c0.8-0.4,1.4-1.6,0.5-2.6s-2.3-1.6-3.8-1.7h-0.4c-1.3,0-2.5,0.5-3.3,1.5
							C354.9,209.6,359.3,211.3,361.3,210.5z"/>
					</g>
				</g>
			</g>
			<g>
				<g>
					<g>
						<path class="st8" d="M358.8,203.2v1.7l0.1,3.2h-2.4l-0.1-4.1v-1.6C357.1,202.9,357.9,203.2,358.8,203.2z"/>
					</g>
				</g>
			</g>
			<g>
				<g>
					<g>
						<g>
							<path class="st8" d="M358.8,203.6v1.7c-0.9-0.1-1.9-0.5-2.5-1.2v-1.3C357.1,203.3,357.9,203.6,358.8,203.6z"/>
						</g>
					</g>
				</g>
			</g>
			<g>
				<g>
					<g>
						<path class="st8" d="M358.2,204.4L358.2,204.4c-2.3,0-4.4-1.2-5.6-2.9c-0.9-1.2-1.4-2.7-1.4-4.3v-2.8c0-2,0.9-3.8,2.3-5.1
							c1.3-1.2,3-1.9,4.9-1.9l0,0c1.2,0,2.4,0.3,3.4,0.9c2.2,1.2,3.6,3.6,3.6,6.2v2.8c0,2.6-1.4,4.8-3.5,6
							C360.8,204.1,359.5,204.5,358.2,204.4z"/>
					</g>
				</g>
			</g>
			<g>
				<g>
					<g>
						<path class="st10" d="M363.6,227.5c0.8,3.6-1.4,7.2-5.1,8c-3.6,0.8-7.2-1.4-8-5.1c-0.8-3.6,1.4-7.2,5.1-8
							C359.2,221.6,362.8,223.9,363.6,227.5z"/>
					</g>
				</g>
			</g>
			<g>
				<g>
					<g>
						<path class="st9" d="M358.7,200.8c0.2,0.9,0.9,1.6,1.8,1.6s1.7-0.6,1.9-1.5L358.7,200.8z"/>
					</g>
				</g>
			</g>
			<g>
				<g>
					<g>
						<path class="st9" d="M364.9,211.6c0.5,1.3-0.8,2.5-2.2,2.7c-1.3,0.1-2.5-0.8-2.7-2.2c-0.1-1.3,1.9-4.3,2.6-3.2
							C363.4,210.1,364.5,210.5,364.9,211.6z"/>
					</g>
				</g>
			</g>
			<g>
				<g>
					<g>
						<path class="st0" d="M354.3,207.6c-0.6,0.7-0.9,1.5-1,2.5c0,0,0.6,11-2.4,16.1l12.9,1.1l-0.3-15.3c0.1-1.6-0.5-3.1-1.6-4.2
							C361.7,210.3,356.7,207.4,354.3,207.6z"/>
					</g>
				</g>
			</g>
			<g>
				<g>
					<g>
						<g>
							<g>
								<path class="st6" d="M360.4,260c-0.1,1.6-0.4,2.8-0.6,3.2c-0.1,0.1,0,0.3,0.1,0.3l0,0c0.1,0,0.2,0,0.3-0.1
									c0.1-0.3,0.6-1.3,0.7-1.6c0.2-0.5,0.7-1.4,1.3,0.2c0.6,1.6,0.4,3,0.4,4.8c0.1,2.5,3.2,3.3,3.7,3.5c1.3,0.5,2.6,0,2.1-1.4
									c-0.5-1.6-1.3-2-2.1-4c-1.1-2.9-0.9-4.8-1.5-6.5c-0.1-0.3-0.7-1.4-1.9-1.5C361.9,256.9,360.6,258.1,360.4,260z"/>
							</g>
						</g>
					</g>
				</g>
				<g>
					<g>
						<g>
							<g>
								<path class="st8" d="M364.2,265.6c-0.7-1.5-1.4-6-1-7c0.5-1.2,2.9-1.3,3-0.2c0.3,1.8-0.5,4.9,1,8.3
									C367,267.6,365,267.3,364.2,265.6z"/>
							</g>
						</g>
					</g>
				</g>
			</g>
			<g>
				<g>
					<g>
						<path class="st10" d="M354.9,235.2l15.8,7.4l-1.5-3.6l-5.9,19c-0.4,1.2,0.3,2.4,1.4,2.7c1.1,0.3,2.3-0.2,2.7-1.3l7.2-18.5
							c0.5-1.4-0.1-2.9-1.4-3.5l-0.1-0.1l-15.8-7.5c-1.5-0.7-3.3-0.1-4,1.4C352.8,232.6,353.4,234.4,354.9,235.2
							C354.9,235.1,354.9,235.2,354.9,235.2z"/>
					</g>
				</g>
			</g>
			<g>
				<g>
					<g>
						<g>
							<g>
								<path class="st6" d="M372.8,254.9c0.6,1.5,0.9,2.7,0.9,3.1c0,0.1,0.1,0.2,0.3,0.2l0,0c0.1,0,0.2-0.1,0.2-0.2
									c0-0.3-0.1-1.4-0.1-1.8c-0.1-0.5,0-1.5,1.2-0.4s1.7,2.5,2.6,4.1c1.2,2.2,4.4,1.5,4.9,1.4c1.4-0.2,2.3-1.2,1.2-2.2
									c-1.2-1.2-2.1-1.2-3.7-2.6c-2.4-2.1-3-3.8-4.3-5.1c-0.2-0.2-1.3-0.9-2.4-0.4C372.6,251.4,372,253.1,372.8,254.9z"/>
							</g>
						</g>
					</g>
				</g>
				<g>
					<g>
						<g>
							<g>
								<path class="st8" d="M378.7,258c-1.3-1-4-4.6-4.2-5.7c-0.1-1.2,2-2.5,2.6-1.6c1.1,1.5,1.9,4.6,4.8,6.9
									C382.2,258.5,380.2,259.2,378.7,258z"/>
							</g>
						</g>
					</g>
				</g>
			</g>
			<g>
				<g>
					<g>
						<path class="st10" d="M356,235.6l17.4-0.9l-3-2.5l3.7,19.6c0.2,1.2,1.4,2,2.6,1.7c1.1-0.2,1.9-1.3,1.8-2.4l-2.3-19.8
							c-0.2-1.5-1.4-2.5-2.9-2.5h-0.1l-17.5,0.7c-1.7,0.1-2.9,1.5-2.9,3.1C353,234.4,354.4,235.7,356,235.6L356,235.6z"/>
					</g>
				</g>
			</g>
			<g>
				<g>
					<g>
						<path class="st8" d="M354.8,229c0.8,0.1,1.6,0.2,2.5,0.3c0.8,0.1,1.5-0.6,1.6-1.4s-0.6-1.5-1.4-1.6c-2.8-0.2-6.3-0.9-7.2-3.1
							c-1.4-3.5,3.5-9.9,5.3-11.9c0.6-0.6,0.5-1.6-0.1-2.1c-0.6-0.6-1.6-0.5-2.1,0.1c-0.8,0.9-8.2,9.2-5.9,15.1
							C348.5,226.7,350.9,228.3,354.8,229z"/>
					</g>
				</g>
			</g>
			<g>
				<g>
					<path class="st0" d="M352.5,208.5c0.6-0.6,1.5-0.9,2.3-0.8c0.6,0.1,1.1,0.4,1.5,0.9c0.9,1,0.8,2.6-0.1,3.5
						c-2.1,2.3-6.1,8-5,10.7c0.2,0.5,0.6,0.9,1.1,1.2c0.9,0.6,1.4,1.6,1.2,2.7c0,0,0,0,0,0.1c-0.3,1.7-2.2,2.7-3.7,1.8
						c-1.6-0.9-2.8-2.2-3.4-3.8C343.9,218.3,351.1,210.1,352.5,208.5z"/>
				</g>
			</g>
			<g>
				<g>
					<g>
						<path class="st8" d="M363.6,227.5c-0.1,0.9-0.5,1.7-1,2.2l-5.5-0.4c-0.5-0.7-0.7-1.5-0.7-2.4c0.2-2,1.9-3.5,3.9-3.3
							C362.3,223.8,363.8,225.6,363.6,227.5z"/>
					</g>
				</g>
			</g>
			<g>
				<g>
					<g>
						<path class="st8" d="M382.3,228.2c0,0.9-0.4,1.7-0.9,2.3l-5.5-0.2c-0.5-0.6-0.8-1.5-0.8-2.4c0.1-2,1.8-3.5,3.7-3.5
							C380.8,224.5,382.4,226.2,382.3,228.2z"/>
					</g>
				</g>
			</g>
			<g>
				<g>
					<g>
						<path class="st6" d="M350,193.1c0.8,2.3,4.4,3.1,8,1.8c3.6-1.3,5.9-4.1,5.1-6.4s-4.4-3.1-8-1.8S349.2,190.8,350,193.1z"/>
					</g>
				</g>
			</g>
			<g>
				<g>
					<g>
						<path class="st10" d="M353.8,229.6c0-0.5,0.4-0.9,0.9-0.9h32.6c0.7,0,1.2,0.4,1.2,0.9s-0.6,0.9-1.2,0.9h-32.6
							C354.2,230.5,353.8,230.1,353.8,229.6L353.8,229.6z"/>
					</g>
				</g>
				<g>
					<g>
						<path class="st5" d="M352.5,229.6c0,0.5,0.4,0.9,1,0.9h12.4c0.5,0,1-0.4,1-0.9s-0.4-0.9-1-0.9h-12.4
							C352.9,228.7,352.5,229.1,352.5,229.6z"/>
					</g>
				</g>
				<g>
					<g>
						<path class="st0" d="M388.5,211.8v16.5c0,0.7-0.6,1.3-1.3,1.3h-21.7c-0.7,0-1.3-0.6-1.3-1.3v-16.5c0-0.7,0.6-1.3,1.3-1.3h21.7
							C387.9,210.5,388.5,211.1,388.5,211.8z"/>
					</g>
				</g>
				<g>
					<g>
						<path class="st6" d="M389.5,211.8v16.5c0,0.7-0.6,1.3-1.3,1.3h-21.7c-0.7,0-1.3-0.6-1.3-1.3v-16.5c0-0.7,0.6-1.3,1.3-1.3h21.7
							C388.9,210.5,389.5,211.1,389.5,211.8z"/>
					</g>
				</g>
				<g>
					<g>
						<path class="st0" d="M373.8,220L373.8,220c0-0.8,0.6-1.4,1.4-1.4h4.4c0.8,0,1.4,0.6,1.4,1.4l0,0c0,0.8-0.6,1.4-1.4,1.4h-4.4
							C374.4,221.4,373.8,220.8,373.8,220z"/>
					</g>
				</g>
			</g>
			<g>
				<g>
					<g>
						<rect x="354.7" y="215" class="st1" width="6.3" height="3.1"/>
					</g>
				</g>
				<g>
					<g>
						<rect x="354.7" y="216.9" class="st5" width="6.3" height="1.1"/>
					</g>
				</g>
			</g>
		</g>
		<g>
			<g>
				<g>
					<g>
						<g>
							<path class="st5" d="M224.1,374.4l27-2.6l0.8,8.1l-27,2.6c-2.2,0.2-4.2-1.4-4.4-3.6v-0.1
								C220.3,376.6,221.9,374.6,224.1,374.4z"/>
						</g>
					</g>
				</g>
			</g>
			<g>
				<g>
					<g>
						<g>
							<path class="st5" d="M278,374.4l-27-2.6l-0.8,8.1l27,2.6c2.2,0.2,4.2-1.4,4.4-3.6v-0.1C281.8,376.6,280.2,374.6,278,374.4z"
								/>
						</g>
					</g>
				</g>
			</g>
			<g>
				<g>
					<g>
						<g>
							<path class="st0" d="M243.1,374.8c-0.9,0-1.8-0.4-2.3-1.2l-10.1-13.8c-0.8-1.1-0.7-2.5,0.1-3.6l13.1-16
								c1-1.2,2.9-1.4,4.1-0.4c1.2,1,1.4,2.9,0.4,4.1l-11.7,14.2l8.7,11.9c0.9,1.3,0.7,3.1-0.6,4.1
								C244.3,374.7,243.7,374.8,243.1,374.8z"/>
						</g>
					</g>
				</g>
			</g>
			<g>
				<g>
					<g>
						<g>
							<path class="st0" d="M262.4,374.8c-0.6,0-1.2-0.2-1.7-0.6c-1.3-0.9-1.6-2.8-0.6-4.1l8.8-12l-11.7-14.2
								c-1-1.2-0.8-3.1,0.4-4.1s3.1-0.8,4.1,0.4l13.1,15.9c0.8,1,0.9,2.5,0.1,3.6l-10.1,13.8C264.2,374.4,263.3,374.8,262.4,374.8z"
								/>
						</g>
					</g>
				</g>
			</g>
			<g>
				<g>
					<g>
						<g>
							<path class="st10" d="M261.4,322.6c0,4.6-3.8,8.4-8.4,8.4s-8.4-3.8-8.4-8.4s3.8-8.4,8.4-8.4
								C257.7,314.2,261.4,317.9,261.4,322.6z"/>
						</g>
					</g>
				</g>
			</g>
			<g>
				<g>
					<g>
						<g>
							<polygon class="st8" points="256.1,332.9 256.1,340.8 256.1,346 250,346 250.3,333.3 250.4,329.6 							"/>
						</g>
					</g>
				</g>
			</g>
			<g>
				<g>
					<g>
						<g>
							<path class="st0" d="M243.9,345.3c0.3-2.5,2.2-4.9,4.4-6.1c3.3-1.7,8.5-0.5,10.1,0.4c2.8,1.7,4.4,5,4.3,8.5l7.7,25.5h-34.6
								C235.8,373.7,243.2,352.6,243.9,345.3z"/>
						</g>
					</g>
				</g>
			</g>
			<g>
				<g>
					<g>
						<g>
							<path class="st8" d="M257.4,339.3c-2.4-1-5.9-1.4-8.6-0.2l2.1,2.1c1.3,1.3,3.4,1.3,4.7,0
								C256.2,340.5,256.8,339.9,257.4,339.3z"/>
						</g>
					</g>
				</g>
			</g>
			<g>
				<g>
					<g>
						<g>
							<path class="st8" d="M254.6,317.8h-3.2c-2.8,0-5.4,2.3-5.1,5.1c0.3,2,0,3.6,0,6.6c0,2.5,3,7.4,5.5,7.4h2.4
								c2.5,0,5.5-4.9,5.5-7.4c0-3-0.3-4.5,0-6.6C260.1,320.1,257.4,317.8,254.6,317.8z"/>
						</g>
					</g>
				</g>
			</g>
			<g>
				<g>
					<g>
						<g>
							<path class="st9" d="M250.5,332.3c0.2,1.2,1.3,2.1,2.6,2.1s2.3-0.9,2.6-2.1H250.5z"/>
						</g>
					</g>
				</g>
			</g>
			<g>
				<g>
					<g>
						<g>
							<path class="st5" d="M256.2,384.6h-6.3c-4.6,0-8-4.2-7.1-8.6l0.4-9.1h19.7l0.4,9.1C264.2,380.4,260.8,384.6,256.2,384.6z"/>
						</g>
					</g>
				</g>
			</g>
			<g>
				<g>
					<g>
						<g>
							<g>
								<path class="st0" d="M244.7,387.7l7-0.4v0.1c-0.1,0.4,0.3,0.8,0.7,0.8c0.3,0,0.6-0.2,0.6-0.5l0.1-0.4h0.8v0.2
									c-0.1,0.4,0.3,0.8,0.7,0.8c0.3,0,0.6-0.2,0.6-0.5l0.1-0.5l4.4-0.3c0.1,0,0.2-0.1,0.3-0.1c0.2,0,0.3-0.1,0.5-0.1
									c2-0.7,3.1-3,2.3-5c-0.7-2-3-3.1-5-2.3l0,0l0,0l-13.9,5c-0.2,0.1-0.4,0.2-0.6,0.4C242,385.8,243,387.8,244.7,387.7z"/>
							</g>
						</g>
					</g>
				</g>
				<g id="_x38_._Right_shoe_96_">
					<g>
						<g>
							<g>
								<g>
									<path class="st10" d="M255.4,385.1c-0.7-2,0.3-4.3,2.3-5c2-0.7,4.3,0.3,5,2.3s-0.3,4.3-2.3,5
										C258.3,388.2,256.1,387.1,255.4,385.1z"/>
								</g>
							</g>
						</g>
					</g>
					<g>
						<g>
							<g>
								<g>
									<path class="st10" d="M243.8,385.2l13.9-5c1.5-0.5,3.1,0.2,3.6,1.7l0,0c0.5,1.5-0.2,5.4-1.7,5.9l-14.9,0.9
										c-1.6,0.1-2.7-1.9-1.5-3.1C243.3,385.4,243.5,385.3,243.8,385.2z"/>
								</g>
							</g>
						</g>
					</g>
					<g>
						<g>
							<g>
								<g>
									<path class="st0" d="M254.7,386.2L254.7,386.2c0.4,0,0.7,0.4,0.7,0.8l-0.2,1.5c-0.1,0.3-0.3,0.5-0.6,0.5l0,0
										c-0.4,0-0.7-0.4-0.7-0.8l0.2-1.5C254.1,386.5,254.3,386.3,254.7,386.2z"/>
								</g>
							</g>
						</g>
					</g>
					<g>
						<g>
							<g>
								<g>
									<path class="st0" d="M252.5,386.3L252.5,386.3c0.4,0,0.7,0.4,0.7,0.8l-0.2,1.5c0,0.3-0.3,0.5-0.6,0.5l0,0
										c-0.4,0-0.7-0.4-0.7-0.8l0.2-1.5C252,386.5,252.2,386.3,252.5,386.3z"/>
								</g>
							</g>
						</g>
					</g>
				</g>
			</g>
			<g>
				<g>
					<g>
						<g>
							<path class="st8" d="M276.3,376.1l-18.2,4.9c-1.8,0.5-2.8,2.3-2.3,4v0.1c0.5,1.8,2.3,2.8,4,2.3l18.2-4.9
								c1.8-0.5,2.8-2.3,2.3-4v-0.1C279.9,376.7,278.1,375.6,276.3,376.1z"/>
						</g>
					</g>
				</g>
			</g>
			<g>
				<g>
					<g>
						<g>
							<g>
								<path class="st0" d="M257.9,387.8l-7.2-0.4v0.1c0.1,0.4-0.3,0.8-0.7,0.8c-0.3,0-0.6-0.2-0.6-0.6l-0.1-0.4h-0.8v0.2
									c0.1,0.4-0.3,0.8-0.7,0.8c-0.3,0-0.6-0.2-0.6-0.6l-0.1-0.5l-4.5-0.3c-0.1,0-0.2-0.1-0.3-0.1c-0.2,0-0.4-0.1-0.5-0.1
									c-2.1-0.8-3.2-3-2.4-5.1s3-3.2,5.1-2.4l0,0l0,0l14.3,5.2c0.2,0.1,0.4,0.2,0.6,0.4C260.7,385.8,259.6,387.9,257.9,387.8z"/>
							</g>
						</g>
					</g>
				</g>
				<g id="_x38_._Right_shoe_95_">
					<g>
						<g>
							<g>
								<g>
									<path class="st10" d="M247,385.1c0.8-2.1-0.3-4.4-2.4-5.1c-2.1-0.8-4.4,0.3-5.1,2.4c-0.8,2.1,0.3,4.4,2.4,5.1
										C243.9,388.3,246.2,387.2,247,385.1z"/>
								</g>
							</g>
						</g>
					</g>
					<g>
						<g>
							<g>
								<g>
									<path class="st10" d="M258.9,385.2l-14.3-5.2c-1.5-0.5-3.2,0.2-3.7,1.7l0,0c-0.5,1.5,0.2,5.5,1.7,6.1l15.3,0.9
										c1.7,0.1,2.7-1.9,1.6-3.2C259.3,385.4,259.1,385.3,258.9,385.2z"/>
								</g>
							</g>
						</g>
					</g>
					<g>
						<g>
							<g>
								<g>
									<path class="st0" d="M247.7,386.3L247.7,386.3c-0.4,0-0.8,0.4-0.7,0.8l0.3,1.5c0.1,0.3,0.3,0.6,0.6,0.6l0,0
										c0.4,0,0.8-0.4,0.7-0.8l-0.3-1.5C248.3,386.6,248,386.3,247.7,386.3z"/>
								</g>
							</g>
						</g>
					</g>
					<g>
						<g>
							<g>
								<g>
									<path class="st0" d="M249.9,386.4L249.9,386.4c-0.4,0-0.8,0.4-0.7,0.8l0.3,1.5c0.1,0.3,0.3,0.6,0.6,0.6l0,0
										c0.4,0,0.8-0.4,0.7-0.8l-0.3-1.5C250.4,386.6,250.2,386.4,249.9,386.4z"/>
								</g>
							</g>
						</g>
					</g>
				</g>
			</g>
			<g>
				<g>
					<g>
						<g>
							<path class="st8" d="M225.8,376.1L244,381c1.8,0.5,2.8,2.3,2.3,4v0.1c-0.5,1.8-2.3,2.8-4,2.3l-18.2-4.9
								c-1.8-0.5-2.8-2.3-2.3-4v-0.1C222.2,376.7,224,375.6,225.8,376.1z"/>
						</g>
					</g>
				</g>
			</g>
			<g>
				<g>
					<g>
						<g>
							<path class="st5" d="M263.6,379.9h-21.1c-1.1,0-2-0.9-2-2v-14c0-1.1,0.9-2,2-2h21.1c1.1,0,2,0.9,2,2v14
								C265.5,379,264.7,379.9,263.6,379.9z"/>
						</g>
					</g>
				</g>
			</g>
			<g>
				<g>
					<path class="st0" d="M278.1,373.3c-12.2-5.2-28.1-2.7-28.1-2.7l-0.5,5.4c1.4-0.4,2.9-0.6,4.3-0.6h0.1c4.5,0,8.8,1.8,12,4.9
						c1.6,1.6,2.1,3.4,1.2,5.9c0,0,11.3-2.8,11.4-2.9c2.2-0.5,3.8-2.3,4.1-4.6C282.9,376.1,280.7,374.4,278.1,373.3z"/>
				</g>
			</g>
			<g>
				<g>
					<path class="st0" d="M223.3,373.3c12.2-5.2,28.1-2.7,28.1-2.7l0.5,5.4c-1.4-0.4-2.9-0.6-4.3-0.6h-0.1c-4.5,0-8.8,1.8-12,4.9
						c-1.6,1.6-2.1,3.4-1.2,5.9c0,0-11.3-2.8-11.4-2.9c-2.2-0.5-3.8-2.3-4.1-4.6C218.4,376.1,220.7,374.4,223.3,373.3z"/>
				</g>
			</g>
			<g>
				<g>
					<g>
						<g>
							<path class="st6" d="M263.6,380.7h-21.1c-1.1,0-2-0.9-2-2v-14c0-1.1,0.9-2,2-2h21.1c1.1,0,2,0.9,2,2v14
								C265.5,379.8,264.7,380.7,263.6,380.7z"/>
						</g>
					</g>
				</g>
			</g>
			<g>
				<g>
					<g>
						<g>
							<path class="st0" d="M255.9,373.3h-5.8c-0.8,0-1.5-0.7-1.5-1.5l0,0c0-0.8,0.7-1.5,1.5-1.5h5.8c0.8,0,1.5,0.7,1.5,1.5l0,0
								C257.4,372.6,256.7,373.3,255.9,373.3z"/>
						</g>
					</g>
				</g>
			</g>
			<g>
				<g>
					<g>
						<g>
							<path class="st10" d="M254.3,316.1c-5.6,0-10.4,5.9-10.4,5.9c7,4.3,11.8,1.1,13.5-0.2c0.5-0.4,1.5-1.2,1.5-2.3L254.3,316.1z"
								/>
						</g>
					</g>
				</g>
			</g>
			<g>
				<g>
					<polygon class="st0" points="262.9,308.7 242.7,308.7 244.2,321.6 261.4,321.6 					"/>
				</g>
			</g>
			<g>
				<g>
					<g>
						<rect x="255.1" y="350.3" class="st1" width="6.3" height="3.1"/>
					</g>
				</g>
				<g>
					<g>
						<rect x="255.1" y="352.3" class="st5" width="6.3" height="1.1"/>
					</g>
				</g>
			</g>
		</g>
		<g>
			<g>
				<g>
					<g>
						<g>
							<g>
								<path class="st5" d="M258.2,204.8c0.5-1.1-0.3-2.1-0.5-2.3c-1.3-1.2-3-1.8-5.2-4.1c-1.5-1.5-1.5-2.4-2.8-3.6
									c-1.1-1-2-0.1-2.1,1.3c0,0.5-0.6,3.7,1.6,4.8c1.6,0.8,1.4,3.8,2,4.1c0.4,0.2,1.7,0.2,3.1,0.8
									C256.1,206.5,257.8,205.8,258.2,204.8z"/>
							</g>
						</g>
					</g>
				</g>
				<g>
					<g>
						<g>
							<g>
								<path class="st8" d="M250.9,200c1,1.2,4.8,3.9,5.8,3.9c1.2,0.1,2.4-2.1,1.5-2.7c-1.5-1-4.7-1.7-7.1-4.5
									C250.3,196.6,249.7,198.6,250.9,200z"/>
							</g>
						</g>
					</g>
				</g>
			</g>
			<g>
				<g>
					<path class="st8" d="M294.6,178c0,0-2.6,1.1-6.4,2.8c-1.9,0.9-4.1,1.8-6.5,2.9s-4.9,2.3-7.4,3.4l-0.9,0.4l-0.2,0.1h-0.1
						l-0.3,0.1l-0.1,0.1l-0.5,0.3l-0.9,0.5h-0.1l-0.2,0.1l0,0l-0.1,0.1l-0.2,0.1l-0.4,0.3c-1.1,0.8-2.2,1.6-3.3,2.3
						c-1.1,0.8-2.1,1.5-3.1,2.2s-1.9,1.4-2.7,2c-1.7,1.2-3.1,2.3-4,3c-1,0.7-1.5,1.2-1.5,1.2l2.2,3.2c0,0,0.6-0.4,1.6-1
						s2.5-1.5,4.3-2.6c0.9-0.5,1.8-1.1,2.9-1.8c1-0.6,2.1-1.3,3.2-2s2.2-1.4,3.4-2.2l0.4-0.3l0.2-0.1l0.1-0.1l0,0
						c0,0-0.4,0.2-0.2,0.1l0,0h0.1l0.9-0.5l0.5-0.2l0.1-0.1l0,0c0,0-0.4,0.2-0.2,0.1l0,0h0.1l0.2-0.1l1-0.4c2.5-1.1,5.1-2.2,7.5-3.3
						c2.4-1.1,4.6-2.1,6.5-2.9c3.8-1.7,6.3-2.9,6.3-2.9L294.6,178z"/>
				</g>
			</g>
			<g>
				<g>
					<g>
						<path class="st5" d="M288.4,153.6c-0.7-1,0.2-2.5-0.3-4.4c-1.7-5.7,0.3-8.2,0.3-8.2c0-2.1,1.7-3.9,4.4-4.9
							c1.2-0.5,2.7-0.7,4.2-0.7c2.3,0,4.4,0.6,5.9,1.5c1.7,1,2.9,2.4,2.7,4c-0.1,1.1-1.3,2.6-0.1,4.5c3,4.7,1.7,7.4,0.1,8.2
							c-1.5,0.8-3.2,0.8-4.1,1.3C297.1,157.5,290.7,157,288.4,153.6z"/>
					</g>
				</g>
			</g>
			<g>
				<g>
					<path class="st8" d="M274.4,174.4c-1-0.1-2.1-0.3-3.2-0.6c-0.8-0.2-1.3-1-1.1-1.8s1-1.3,1.8-1.1c5.1,1.2,9.3,0.7,12.5-1.5
						c4.8-3.3,5.7-9.5,5.7-9.6c0.1-0.8,0.9-1.4,1.7-1.3c0.8,0.1,1.4,0.9,1.3,1.7c0,0.3-1,7.5-6.9,11.6
						C282.8,174.1,278.9,175,274.4,174.4z"/>
				</g>
			</g>
			<g>
				<g>
					<path class="st0" d="M289.3,162.2c-0.3,0-0.6,0-0.8,0.1c0.5-1.4,0.7-2.5,0.7-2.5c0.2-1.2,1.2-2.1,2.4-2.1c0.1,0,0.2,0,0.3,0
						c1.3,0.2,2.2,1.4,2,2.7c0,0.2-0.3,1.9-1.1,4.1C292.2,163.2,291.1,162.2,289.3,162.2z"/>
				</g>
			</g>
			<g>
				<g>
					<g>
						<path class="st8" d="M292.1,160.9c-0.8-0.4-1.4-1.6-0.5-2.6c0.9-1.1,2.3-1.6,3.8-1.7h0.4c1.3,0,2.5,0.5,3.3,1.5
							C298.5,160,294.2,161.7,292.1,160.9z"/>
					</g>
				</g>
			</g>
			<g>
				<g>
					<g>
						<path class="st8" d="M294.6,153.6v1.7l-0.1,3.2h2.4l0.1-4.1v-1.6C296.3,153.4,295.5,153.7,294.6,153.6z"/>
					</g>
				</g>
			</g>
			<g>
				<g>
					<g>
						<g>
							<path class="st8" d="M294.6,154v1.7c0.9-0.1,1.9-0.5,2.5-1.2v-1.3C296.3,153.8,295.5,154.1,294.6,154z"/>
						</g>
					</g>
				</g>
			</g>
			<g>
				<g>
					<g>
						<path class="st8" d="M295.2,154.9L295.2,154.9c2.3,0,4.4-1.2,5.6-2.9c0.9-1.2,1.4-2.7,1.4-4.3v-2.8c0-2-0.9-3.8-2.3-5.1
							c-1.3-1.2-3-1.9-4.9-1.9l0,0c-1.2,0-2.4,0.3-3.4,0.9c-2.2,1.2-3.6,3.6-3.6,6.2v2.8c0,2.6,1.4,4.8,3.5,6
							C292.6,154.5,293.9,154.9,295.2,154.9z"/>
					</g>
				</g>
			</g>
			<g>
				<g>
					<g>
						<path class="st2" d="M287.6,177.9c-0.8,3.6,3.7,7.2,7.3,8s7.2-1.4,8-5.1c0.8-3.6-1.4-7.2-5.1-8
							C294.3,172,288.4,174.3,287.6,177.9z"/>
					</g>
				</g>
			</g>
			<g>
				<g>
					<g>
						<path class="st9" d="M294.8,151.2c-0.2,0.9-0.9,1.6-1.8,1.6s-1.7-0.6-1.9-1.5L294.8,151.2z"/>
					</g>
				</g>
			</g>
			<g>
				<g>
					<g>
						<path class="st0" d="M288.1,162.6c-0.5,1.3,0.8,2.8,2.2,3c1.3,0.1,3-1.6,3.1-2.9s-1.9-4.3-2.6-3.2
							C290,160.5,288.5,161.5,288.1,162.6z"/>
					</g>
				</g>
			</g>
			<g>
				<g>
					<g>
						<path class="st0" d="M299.1,158.1c0.6,0.7,0.9,1.5,1,2.5c0,0-2.2,10.5,2.4,16.1c0,0-8.3,5-15,1.6c0-4.8,2.9-8.1,2.5-15.8
							c-0.1-1.6,0.5-3.1,1.6-4.2C291.7,160.8,296.7,157.8,299.1,158.1z"/>
					</g>
				</g>
			</g>
			<g>
				<g>
					<g>
						<g>
							<g>
								<path class="st5" d="M290,208c-1.2-0.2-2,0.8-2.1,1.1c-0.8,1.6-1,3.4-2.6,6.1c-1.1,1.8-1.9,2.1-2.7,3.6
									c-0.7,1.3,0.5,2,1.8,1.7c0.5-0.1,3.8-0.4,4.2-2.8c0.4-1.8,3.3-2.4,3.4-3c0.1-0.4-0.2-1.7-0.1-3.2
									C292.2,209.6,291.1,208.2,290,208z"/>
							</g>
						</g>
					</g>
				</g>
				<g>
					<g>
						<g>
							<g>
								<path class="st8" d="M287.3,216.3c0.9-1.3,2.5-5.6,2.2-6.7c-0.2-1.2-2.6-1.7-3-0.7c-0.6,1.7-0.4,5-2.4,8
									C284.2,217.8,286.2,217.9,287.3,216.3z"/>
							</g>
						</g>
					</g>
				</g>
			</g>
			<g>
				<g>
					<path class="st8" d="M286.1,209.8l-6.9-18.7c-0.5-1.4,0.1-2.9,1.4-3.5l0.1-0.1l15.9-7.3c1.5-0.7,3.3,0,4,1.5s0,3.3-1.5,4l0,0
						l-13.7,6.1l4.8,16.6"/>
				</g>
			</g>
			<g>
				<g>
					<path class="st0" d="M292.1,199c0,0-2.6-8.9,7-12.4c0.5-0.2,0.9-0.4,1.3-0.7c1.7-1,2.8-2.5,3.3-4.2c1-3.7-1.7-7.4-6-8.3
						c-0.6-0.1-1.2-0.2-1.9-0.2c-3.9,0-8.7,2.1-9.6,5.4c-0.1,0.6-0.2,1.1-0.1,1.7l-4.1,1.6c0,0-8.7,3.2-12.3,6.7
						c-4,3.9-7.9,6.4-7.9,6.4c2.4,5.1,8.1,5.5,8.1,5.5l3.3-4.7v6.7C280,203.5,287.8,202,292.1,199z"/>
				</g>
			</g>
			<g>
				<g>
					<path class="st8" d="M295.2,178.5c-0.8,0-1.6,0-2.5-0.1c-0.8-0.1-1.4-0.8-1.3-1.6c0.1-0.8,0.8-1.4,1.6-1.3
						c2.8,0.3,6.3,0.2,7.6-1.9c2-3.2-1.8-10.4-3.2-12.6c-0.5-0.7-0.3-1.6,0.4-2.1c0.7-0.5,1.6-0.3,2.1,0.4c0.7,1,6.6,10.4,3.3,15.8
						C301.8,177.4,299.1,178.5,295.2,178.5z"/>
				</g>
			</g>
			<g>
				<g>
					<g>
						<path class="st5" d="M303,145.7c0,0-5,1.8-8.2-0.4c-3.1-2.2-4.6-5.5-3.2-7.5s5-1.8,8.2,0.4C302.9,140.4,303,145.7,303,145.7z"
							/>
					</g>
				</g>
			</g>
			<g>
				<g>
					<g>
						<path class="st10" d="M295.9,181.3c0-0.5-0.4-0.9-0.9-0.9h-32.6c-0.7,0-1.2,0.4-1.2,0.9s0.6,0.9,1.2,0.9H295
							C295.5,182.2,295.9,181.8,295.9,181.3L295.9,181.3z"/>
					</g>
				</g>
				<g>
					<g>
						<path class="st2" d="M297.1,181.3c0,0.5-0.4,0.9-1,0.9h-12.4c-0.5,0-1-0.4-1-0.9s0.4-0.9,1-0.9h12.4
							C296.7,180.4,297.1,180.8,297.1,181.3z"/>
					</g>
				</g>
				<g>
					<g>
						<path class="st2" d="M261.1,163.5V180c0,0.7,0.6,1.3,1.3,1.3h21.7c0.7,0,1.3-0.6,1.3-1.3v-16.5c0-0.7-0.6-1.3-1.3-1.3h-21.7
							C261.7,162.2,261.1,162.8,261.1,163.5z"/>
					</g>
				</g>
				<g>
					<g>
						<path class="st6" d="M260.1,163.5V180c0,0.7,0.6,1.3,1.3,1.3h21.7c0.7,0,1.3-0.6,1.3-1.3v-16.5c0-0.7-0.6-1.3-1.3-1.3h-21.7
							C260.7,162.2,260.1,162.8,260.1,163.5z"/>
					</g>
				</g>
				<g>
					<g>
						<path class="st0" d="M275.9,171.8L275.9,171.8c0-0.8-0.6-1.4-1.4-1.4h-4.4c-0.8,0-1.4,0.6-1.4,1.4l0,0c0,0.8,0.6,1.4,1.4,1.4
							h4.4C275.2,173.2,275.9,172.5,275.9,171.8z"/>
					</g>
				</g>
			</g>
			<g>
				<g>
					<path class="st0" d="M301.6,161.9c-1.8,0-2.9,1-3.4,2.3c-0.5-1.1-1.1-2.1-1.6-2.8c-0.7-1.1-0.4-2.6,0.7-3.3
						c0.4-0.3,0.8-0.4,1.3-0.4c0.8,0,1.6,0.4,2,1.1c0.3,0.5,1.1,1.7,1.8,3.2C302.2,162,301.9,161.9,301.6,161.9z"/>
				</g>
			</g>
			<g>
				<g>
					<g>
						<path class="st8" d="M286.2,175.7c-0.4,0.8-0.4,1.7-0.2,2.5l5,2.2c0.7-0.4,1.4-1,1.7-1.8c0.8-1.8,0-4-1.8-4.8
							C289.2,173.1,287.1,173.9,286.2,175.7z"/>
					</g>
				</g>
			</g>
		</g>
	</g>
</g>
<g class="st11">
	<g>
		<g>
			<polygon class="st1" points="557.6,224.4 566.2,188.2 542.8,188.2 563.5,147.7 586.8,147.7 573.8,169.2 597.3,169.2 			"/>
		</g>
	</g>
</g>
</svg>
