<?xml version="1.0" encoding="utf-8"?>
<!-- Generator: Adobe Illustrator 22.1.0, SVG Export Plug-In . SVG Version: 6.00 Build 0)  -->
<svg version="1.1" id="Capa_1" xmlns="http://www.w3.org/2000/svg" xmlns:xlink="http://www.w3.org/1999/xlink" x="0px" y="0px"
	 viewBox="0 0 196 215" style="enable-background:new 0 0 196 215;" xml:space="preserve">
<style type="text/css">
	.st0{fill:#E8F5FD;}
	.st1{fill:#92B4E0;}
	.st2{font-family: 'Open Sans', sans-serif;}
	.st3{font-size:25.4844px;}
	.st4{fill:#FFFFFF;}
	.st5{fill:#CDDCF5;}
	.st6{fill:#D3E0F6;}
	.st7{fill:#F7DDE2;}
	.st8{fill:#BCD1F2;}
	.st9{fill:#8EB4EA;}
	.st10{fill:#659EE3;}
</style>
<circle class="st0" cx="97.8" cy="117.3" r="98"/>
<text transform="matrix(1 0 0 1 39.2956 140.1367)" class="st1 st2 st3">Industria</text>
<g>
	<g>
		<g>
			<g>
				<g>
					<g>
						<rect x="133.5" y="13.8" class="st4" width="2.4" height="86.4"/>
					</g>
				</g>
			</g>
			<g>
				<g>
					<g>
						<path class="st5" d="M137.2,13.8c0-1.4-1.1-2.6-2.6-2.6c-1.4,0-2.6,1.1-2.6,2.6c0,1.4,1.1,2.6,2.6,2.6
							C136.1,16.3,137.2,15.2,137.2,13.8z"/>
					</g>
				</g>
			</g>
			<g>
				<g>
					<g>
						<g>
							<path class="st4" d="M136.1,10.4l-1.5,3.4l-1.5-3.4l1-8.1c0.1-0.6,1-0.6,1,0L136.1,10.4z"/>
						</g>
					</g>
					<g>
						<g>
							<path class="st6" d="M134.7,13.8l-1.5-3.4l0.9-7.5c0-0.4,0.6-0.3,0.6,0V13.8z"/>
						</g>
					</g>
				</g>
				<g>
					<g>
						<g>
							<path class="st4" d="M131,14.2l3.7-0.4l-2.2,3l-8.2,3.6c-0.6,0.2-1-0.5-0.5-0.9L131,14.2z"/>
						</g>
					</g>
					<g>
						<g>
							<path class="st6" d="M134.7,13.8l-2.2,3l-7.7,3.4c-0.3,0.1-0.6-0.3-0.3-0.5L134.7,13.8z"/>
						</g>
					</g>
				</g>
				<g>
					<g>
						<g>
							<path class="st4" d="M138.3,14.2l-3.7-0.4l2.2,3l7.8,3.4c0.6,0.3,1.1-0.6,0.6-1L138.3,14.2z"/>
						</g>
					</g>
					<g>
						<g>
							<path class="st6" d="M134.7,13.8l2.2,3l7.7,3.4c0.3,0.1,0.6-0.3,0.3-0.5L134.7,13.8z"/>
						</g>
					</g>
				</g>
			</g>
			<g>
				<g>
					<g>
						<rect x="132.1" y="100.2" class="st4" width="5.1" height="2.2"/>
					</g>
				</g>
			</g>
		</g>
		<g>
			<g>
				<g>
					<g>
						<rect x="121" y="29.2" class="st4" width="1.8" height="71.7"/>
					</g>
				</g>
			</g>
			<g>
				<g>
					<g>
						<path class="st5" d="M123.8,29.2c0-1-0.8-1.9-1.9-1.9c-1,0-1.9,0.8-1.9,1.9c0,1,0.8,1.9,1.9,1.9
							C122.9,31.1,123.8,30.3,123.8,29.2z"/>
					</g>
				</g>
			</g>
			<g>
				<g>
					<g>
						<g>
							<path class="st4" d="M123,26.8l-1.1,2.5l-1.1-2.5l0.7-6.5c0-0.4,0.7-0.4,0.7,0L123,26.8z"/>
						</g>
					</g>
					<g>
						<g>
							<path class="st6" d="M121.9,29.2l-1.1-2.5l0.7-6.1c0-0.3,0.4-0.2,0.4,0V29.2z"/>
						</g>
					</g>
				</g>
				<g>
					<g>
						<g>
							<path class="st4" d="M119.2,29.5l2.7-0.3l-1.6,2.2l-6,2.7c-0.4,0.2-0.7-0.4-0.4-0.6L119.2,29.5z"/>
						</g>
					</g>
					<g>
						<g>
							<path class="st6" d="M121.9,29.2l-1.6,2.2l-5.6,2.5c-0.2,0.1-0.4-0.2-0.2-0.4L121.9,29.2z"/>
						</g>
					</g>
				</g>
				<g>
					<g>
						<g>
							<path class="st4" d="M124.6,29.5l-2.7-0.3l1.6,2.2l5.7,2.5c0.5,0.2,0.8-0.4,0.4-0.7L124.6,29.5z"/>
						</g>
					</g>
					<g>
						<g>
							<path class="st6" d="M121.9,29.2l1.6,2.2l5.6,2.5c0.2,0.1,0.4-0.2,0.2-0.4L121.9,29.2z"/>
						</g>
					</g>
				</g>
			</g>
			<g>
				<g>
					<g>
						<rect x="120" y="100.8" class="st4" width="3.7" height="1.6"/>
					</g>
				</g>
			</g>
		</g>
		<g>
			<g>
				<g>
					<g>
						<rect x="107.7" y="20.2" class="st4" width="2.1" height="80.4"/>
					</g>
				</g>
			</g>
			<g>
				<g>
					<g>
						<path class="st5" d="M111.1,20.2c0-1.3-1-2.3-2.3-2.3c-1.3,0-2.3,1-2.3,2.3c0,1.3,1,2.3,2.3,2.3
							C110,22.5,111.1,21.5,111.1,20.2z"/>
					</g>
				</g>
			</g>
			<g>
				<g>
					<g>
						<g>
							<path class="st4" d="M110.1,17.2l-1.3,3l-1.3-3l0.9-7.2c0.1-0.5,0.8-0.5,0.9,0L110.1,17.2z"/>
						</g>
					</g>
					<g>
						<g>
							<path class="st6" d="M108.8,20.2l-1.3-3l0.8-6.7c0-0.3,0.5-0.3,0.5,0V20.2z"/>
						</g>
					</g>
				</g>
				<g>
					<g>
						<g>
							<path class="st4" d="M105.5,20.6l3.2-0.4l-1.9,2.6l-7.3,3.2c-0.5,0.2-0.9-0.5-0.4-0.8L105.5,20.6z"/>
						</g>
					</g>
					<g>
						<g>
							<path class="st6" d="M108.8,20.2l-1.9,2.6l-6.8,3c-0.3,0.1-0.5-0.3-0.2-0.5L108.8,20.2z"/>
						</g>
					</g>
				</g>
				<g>
					<g>
						<g>
							<path class="st4" d="M112,20.6l-3.2-0.4l1.9,2.6l6.9,3.1c0.5,0.2,1-0.5,0.5-0.9L112,20.6z"/>
						</g>
					</g>
					<g>
						<g>
							<path class="st6" d="M108.8,20.2l1.9,2.6l6.8,3c0.3,0.1,0.5-0.3,0.2-0.5L108.8,20.2z"/>
						</g>
					</g>
				</g>
			</g>
			<g>
				<g>
					<g>
						<rect x="106.5" y="100.4" class="st4" width="4.6" height="2"/>
					</g>
				</g>
			</g>
		</g>
	</g>
	<g id="XMLID_31_">
		<g id="XMLID_45_">
			<g>
				<polygon class="st4" points="128,44.2 63.3,44.2 63.3,60.3 61.3,61.4 61.3,102.4 150.6,102.4 150.6,61.4 				"/>
			</g>
		</g>
		<g id="XMLID_44_">
			<g>
				<polygon class="st5" points="86,102.4 40.7,102.4 40.7,61.4 63.3,44.2 86,61.4 				"/>
			</g>
		</g>
		<g id="XMLID_43_">
			<g>
				<rect x="86" y="61.4" class="st7" width="64.6" height="40.9"/>
			</g>
		</g>
		<g id="XMLID_40_">
			<g id="XMLID_42_">
				<g>
					<g>
						<polygon class="st8" points="46.7,102.4 46.7,65 63.3,51.1 80,65 80,102.4 						"/>
					</g>
				</g>
			</g>
			<g id="XMLID_41_">
				<g>
					<g>
						<polygon class="st9" points="46.7,102.4 46.7,65 63.3,51.1 80,65 80,102.4 						"/>
					</g>
				</g>
			</g>
		</g>
		<g id="XMLID_34_">
			<g>
				<rect x="93.3" y="67.5" class="st9" width="7.4" height="11.5"/>
			</g>
		</g>
		<g id="XMLID_33_">
			<g>
				<rect x="93.3" y="85.2" class="st9" width="7.4" height="11.5"/>
			</g>
		</g>
		<g id="XMLID_32_">
			<g>
				<polygon class="st5" points="126.4,45.9 144.2,59.5 88.3,59.5 70.5,45.9 				"/>
			</g>
		</g>
	</g>
	<g>
		<g>
			<g>
				<path class="st5" d="M30.8,102.4h126.3c1,0,1.8,0.8,1.8,1.8v0c0,1-0.8,1.8-1.8,1.8H30.8c-1,0-1.8-0.8-1.8-1.8v0
					C29,103.2,29.8,102.4,30.8,102.4z"/>
			</g>
		</g>
	</g>
	<polyline class="st10" points="51.2,101.8 51.2,66.9 75.4,66.9 75.4,101.8 	"/>
</g>
</svg>
