<?xml version="1.0" encoding="utf-8"?>
<!-- Generator: Adobe Illustrator 22.1.0, SVG Export Plug-In . SVG Version: 6.00 Build 0)  -->
<svg version="1.1" id="Layer_1" xmlns="http://www.w3.org/2000/svg" xmlns:xlink="http://www.w3.org/1999/xlink" x="0px" y="0px"
	 viewBox="0 0 277.3 76.7" style="enable-background:new 0 0 277.3 76.7;" xml:space="preserve">
<style type="text/css">
	.st0{fill:#2EC4EA;}
	.st1{fill:#0DADE2;}
	.st2{fill:#158AC8;}
	.st3{fill:#EFC41B;}
	.st4{fill:#EDE219;}
	.st5{fill:#FFFFFF;}
	.st6{fill:#A6CE39;}
	.st7{fill:#C8D92C;}
	.st8{fill:#158AC8;stroke:#158AC8;stroke-miterlimit:10;}
</style>
<g>
	<text transform="matrix(1 0 0 1 88.4953 -64.4397)"><tspan x="0" y="0" class="st2" style="font-family:'Lato-Bold'; font-size:26.8627px;">MC S</tspan><tspan x="62.6" y="0" class="st5" style="font-family:'Lato-Bold'; font-size:26.8627px;">O</tspan><tspan x="84.1" y="0" class="st2" style="font-family:'Lato-Bold'; font-size:26.8627px;">LAR</tspan></text>
	<g>
		
			<text transform="matrix(1 0 0 1 89.4961 -52.7005)" class="st2" style="font-family:'Lato-Light'; font-size:10px; letter-spacing:5;">ecotecnologías</text>
	</g>
	<g>
		<g>
			<g>
				<path class="st0" d="M64.3-72.6c0.8,0.8,0.8,2,0,2.8l-6.2,6.2c-0.8,0.8-2,0.8-2.8,0l-6.2-6.2c-0.8-0.8-0.8-2,0-2.8l6.2-6.2
					c0.8-0.8,2-0.8,2.8,0L64.3-72.6z"/>
			</g>
			<g>
				<path class="st1" d="M74.3-82.6c0.8,0.8,0.8,2,0,2.8l-6.2,6.2c-0.8,0.8-2,0.8-2.8,0l-6.2-6.2c-0.8-0.8-0.8-2,0-2.8l6.2-6.2
					c0.8-0.8,2-0.8,2.8,0L74.3-82.6z"/>
			</g>
			<g>
				<path class="st1" d="M74.2-62.7c0.8,0.8,0.8,2,0,2.8L68-53.7c-0.8,0.8-2,0.8-2.8,0L59-59.8c-0.8-0.8-0.8-2,0-2.8l6.2-6.2
					c0.8-0.8,2-0.8,2.8,0L74.2-62.7z"/>
			</g>
			<g>
				<path class="st2" d="M84.2-72.7c0.8,0.8,0.8,2,0,2.8L78-63.7c-0.8,0.8-2,0.8-2.8,0L69-69.9c-0.8-0.8-0.8-2,0-2.8l6.2-6.2
					c0.8-0.8,2-0.8,2.8,0L84.2-72.7z"/>
			</g>
		</g>
	</g>
	<g>
		<circle class="st3" cx="161.9" cy="-74.1" r="10.2"/>
		<circle class="st4" cx="161.9" cy="-74.1" r="7.1"/>
		<circle class="st5" cx="161.9" cy="-74.1" r="4.1"/>
	</g>
	<path class="st6" d="M75.7-67.2"/>
</g>
<path class="st7" d="M29.2,97.1"/>
<g>
	<g>
		<path class="st2" d="M89.1,36.2c0.2,0.4,0.4,0.9,0.5,1.3c0.2-0.5,0.4-0.9,0.6-1.3c0.2-0.4,0.4-0.9,0.6-1.3l8.1-15.2
			c0.1-0.2,0.2-0.3,0.3-0.5c0.1-0.1,0.2-0.2,0.4-0.2c0.1-0.1,0.3-0.1,0.4-0.1c0.2,0,0.4,0,0.6,0h3.9v27.5H100V28.6
			c0-0.3,0-0.7,0-1.1c0-0.4,0-0.8,0.1-1.2l-8.3,15.6c-0.2,0.4-0.4,0.6-0.7,0.8C90.7,42.9,90.4,43,90,43h-0.7c-0.4,0-0.8-0.1-1.1-0.3
			s-0.6-0.5-0.7-0.8l-8.4-15.6c0.1,0.4,0.1,0.8,0.1,1.2c0,0.4,0,0.8,0,1.1v17.7h-4.5V18.9h3.9c0.2,0,0.4,0,0.6,0
			c0.2,0,0.3,0,0.4,0.1s0.3,0.1,0.4,0.2c0.1,0.1,0.2,0.3,0.3,0.5l8.2,15.3C88.7,35.4,88.9,35.8,89.1,36.2z"/>
		<path class="st2" d="M128.9,39.9c0.3,0,0.5,0.1,0.7,0.3l2,2.2c-1.1,1.4-2.5,2.4-4.1,3.2c-1.6,0.7-3.6,1.1-5.9,1.1
			c-2,0-3.9-0.3-5.5-1c-1.6-0.7-3-1.7-4.2-2.9s-2-2.7-2.6-4.4c-0.6-1.7-0.9-3.6-0.9-5.6c0-2.1,0.3-4,1-5.7c0.7-1.7,1.6-3.2,2.9-4.4
			c1.2-1.2,2.7-2.2,4.5-2.9s3.6-1,5.7-1c2,0,3.8,0.3,5.3,1c1.5,0.7,2.8,1.5,3.9,2.6l-1.7,2.4c-0.1,0.2-0.2,0.3-0.4,0.4
			s-0.4,0.2-0.7,0.2c-0.3,0-0.6-0.1-0.9-0.3c-0.3-0.2-0.7-0.5-1.2-0.7c-0.5-0.3-1.1-0.5-1.8-0.7c-0.7-0.2-1.6-0.3-2.7-0.3
			c-1.3,0-2.5,0.2-3.6,0.7s-2,1.1-2.8,1.9c-0.8,0.8-1.4,1.9-1.8,3c-0.4,1.2-0.7,2.5-0.7,4c0,1.5,0.2,2.9,0.7,4.1
			c0.4,1.2,1,2.2,1.8,3c0.7,0.8,1.6,1.5,2.6,1.9c1,0.4,2.1,0.7,3.3,0.7c0.7,0,1.3,0,1.9-0.1s1.1-0.2,1.6-0.4
			c0.5-0.2,0.9-0.4,1.3-0.6c0.4-0.3,0.8-0.6,1.3-1c0.1-0.1,0.3-0.2,0.4-0.3C128.6,39.9,128.7,39.9,128.9,39.9z"/>
		<path class="st2" d="M157.5,23.9c-0.1,0.3-0.3,0.5-0.5,0.6s-0.4,0.2-0.7,0.2s-0.5-0.1-0.9-0.3c-0.3-0.2-0.7-0.4-1.1-0.7
			c-0.4-0.2-0.9-0.5-1.5-0.7c-0.6-0.2-1.3-0.3-2-0.3c-0.7,0-1.3,0.1-1.9,0.3c-0.5,0.2-1,0.4-1.3,0.7c-0.4,0.3-0.6,0.7-0.8,1.1
			c-0.2,0.4-0.3,0.9-0.3,1.4c0,0.6,0.2,1.2,0.5,1.6c0.4,0.4,0.8,0.8,1.4,1.1c0.6,0.3,1.3,0.6,2,0.8c0.8,0.2,1.5,0.5,2.3,0.8
			c0.8,0.3,1.6,0.6,2.3,1c0.8,0.4,1.4,0.8,2,1.4c0.6,0.6,1.1,1.2,1.4,2c0.4,0.8,0.5,1.8,0.5,2.9c0,1.2-0.2,2.4-0.6,3.5
			c-0.4,1.1-1,2-1.9,2.8c-0.8,0.8-1.8,1.4-3,1.9s-2.5,0.7-4,0.7c-0.9,0-1.7-0.1-2.6-0.3s-1.7-0.4-2.4-0.7c-0.8-0.3-1.5-0.7-2.2-1.1
			s-1.3-0.9-1.8-1.5l1.5-2.5c0.1-0.2,0.3-0.3,0.5-0.4c0.2-0.1,0.4-0.2,0.7-0.2c0.3,0,0.7,0.1,1,0.4c0.4,0.3,0.8,0.5,1.3,0.9
			s1.1,0.6,1.8,0.9c0.7,0.3,1.5,0.4,2.4,0.4c1.5,0,2.6-0.3,3.4-1c0.8-0.7,1.2-1.7,1.2-3c0-0.7-0.2-1.3-0.5-1.8s-0.8-0.8-1.4-1.1
			c-0.6-0.3-1.3-0.6-2-0.8c-0.8-0.2-1.5-0.5-2.3-0.7s-1.6-0.6-2.3-0.9s-1.4-0.8-2-1.4c-0.6-0.6-1.1-1.3-1.4-2.1
			c-0.4-0.9-0.5-1.9-0.5-3.2c0-1,0.2-2,0.6-2.9c0.4-1,1-1.8,1.7-2.5s1.7-1.3,2.8-1.8c1.1-0.4,2.4-0.7,3.8-0.7c1.6,0,3.1,0.3,4.5,0.8
			c1.4,0.5,2.5,1.2,3.5,2.1L157.5,23.9z"/>
		<path class="st5" d="M189.6,32.6c0,2-0.3,3.9-1,5.6c-0.7,1.7-1.6,3.2-2.8,4.5s-2.7,2.2-4.4,2.9c-1.7,0.7-3.6,1.1-5.7,1.1
			s-4-0.4-5.7-1.1c-1.7-0.7-3.2-1.7-4.4-2.9c-1.2-1.3-2.2-2.7-2.8-4.5c-0.7-1.7-1-3.6-1-5.6s0.3-3.9,1-5.6c0.7-1.7,1.6-3.2,2.8-4.5
			c1.2-1.3,2.7-2.2,4.4-2.9c1.7-0.7,3.6-1.1,5.7-1.1s4,0.4,5.7,1.1c1.7,0.7,3.2,1.7,4.4,2.9c1.2,1.2,2.2,2.7,2.8,4.4
			C189.2,28.7,189.6,30.6,189.6,32.6z M184.3,32.6c0-1.5-0.2-2.9-0.6-4.1c-0.4-1.2-1-2.2-1.7-3s-1.7-1.5-2.7-1.9s-2.3-0.7-3.6-0.7
			c-1.3,0-2.6,0.2-3.6,0.7c-1.1,0.4-2,1.1-2.7,1.9c-0.8,0.8-1.3,1.9-1.7,3c-0.4,1.2-0.6,2.5-0.6,4.1c0,1.5,0.2,2.9,0.6,4.1
			c0.4,1.2,1,2.2,1.7,3c0.8,0.8,1.7,1.5,2.7,1.9c1.1,0.4,2.3,0.7,3.6,0.7c1.3,0,2.5-0.2,3.6-0.7s2-1.1,2.7-1.9
			c0.7-0.8,1.3-1.8,1.7-3C184.1,35.5,184.3,34.1,184.3,32.6z"/>
		<path class="st2" d="M198.7,42.1h11v4.2h-16.1V18.9h5.1V42.1z"/>
		<path class="st2" d="M237.4,46.3h-4c-0.4,0-0.8-0.1-1.1-0.3s-0.5-0.5-0.6-0.8l-2.1-5.6h-11.4l-2.1,5.6c-0.1,0.3-0.3,0.6-0.6,0.8
			c-0.3,0.2-0.7,0.4-1.1,0.4h-4l10.8-27.5h5.2L237.4,46.3z M219.6,36h8.8l-3.3-9.1c-0.2-0.4-0.3-0.9-0.5-1.4
			c-0.2-0.6-0.4-1.1-0.5-1.8c-0.2,0.6-0.4,1.2-0.5,1.8s-0.3,1-0.5,1.5L219.6,36z"/>
		<path class="st2" d="M245.5,35.6v10.7h-5.1V18.9h8.4c1.9,0,3.5,0.2,4.8,0.6c1.3,0.4,2.4,0.9,3.3,1.6c0.9,0.7,1.5,1.5,1.9,2.5
			c0.4,1,0.6,2,0.6,3.2c0,0.9-0.1,1.8-0.4,2.6s-0.7,1.6-1.2,2.2c-0.5,0.7-1.1,1.3-1.9,1.8c-0.8,0.5-1.6,0.9-2.6,1.2
			c0.6,0.4,1.2,0.9,1.7,1.6l6.9,10.1h-4.6c-0.4,0-0.8-0.1-1.1-0.3c-0.3-0.2-0.6-0.4-0.8-0.8l-5.8-8.8c-0.2-0.3-0.5-0.6-0.7-0.7
			s-0.6-0.2-1.1-0.2H245.5z M245.5,31.9h3.2c1,0,1.8-0.1,2.5-0.4c0.7-0.2,1.3-0.6,1.8-1c0.5-0.4,0.8-0.9,1-1.5
			c0.2-0.6,0.3-1.2,0.3-1.9c0-1.4-0.5-2.5-1.4-3.2c-0.9-0.7-2.3-1.1-4.2-1.1h-3.3V31.9z"/>
	</g>
	<g>
		<g>
			<path class="st8" d="M77.1,55.8c0.4,0,0.8,0.1,1.1,0.2s0.6,0.3,0.9,0.6c0.2,0.3,0.4,0.6,0.6,1c0.1,0.4,0.2,0.8,0.2,1.3
				c0,0.1,0,0.2,0,0.2c0,0-0.1,0.1-0.1,0.1h-5.1v0.1c0,0.5,0.1,1,0.2,1.4c0.1,0.4,0.3,0.7,0.5,1c0.2,0.3,0.5,0.5,0.8,0.6
				c0.3,0.1,0.7,0.2,1.1,0.2c0.4,0,0.7,0,0.9-0.1c0.3-0.1,0.5-0.2,0.7-0.3s0.3-0.2,0.4-0.3c0.1-0.1,0.2-0.1,0.2-0.1
				c0.1,0,0.1,0,0.1,0.1l0.2,0.2c-0.1,0.1-0.3,0.3-0.4,0.4c-0.2,0.1-0.4,0.2-0.6,0.3S78.2,62.9,78,63C77.7,63,77.4,63,77.2,63
				c-0.5,0-0.9-0.1-1.3-0.3c-0.4-0.2-0.7-0.4-1-0.7c-0.3-0.3-0.5-0.7-0.7-1.2c-0.2-0.5-0.2-1-0.2-1.6c0-0.5,0.1-1,0.2-1.4
				s0.4-0.8,0.6-1.1c0.3-0.3,0.6-0.6,1-0.7C76.2,55.9,76.6,55.8,77.1,55.8z M77.1,56.3c-0.4,0-0.7,0.1-1,0.2
				c-0.3,0.1-0.5,0.3-0.7,0.5c-0.2,0.2-0.4,0.5-0.5,0.8c-0.1,0.3-0.2,0.6-0.3,1h4.6c0-0.4-0.1-0.7-0.2-1c-0.1-0.3-0.2-0.6-0.4-0.8
				c-0.2-0.2-0.4-0.4-0.7-0.5S77.5,56.3,77.1,56.3z"/>
			<path class="st8" d="M94,56.9C94,56.9,93.9,56.9,94,56.9c-0.1,0.1-0.1,0.1-0.2,0.1c0,0-0.1,0-0.2-0.1c-0.1-0.1-0.2-0.1-0.3-0.2
				s-0.3-0.1-0.5-0.2c-0.2-0.1-0.5-0.1-0.7-0.1c-0.4,0-0.8,0.1-1.1,0.2c-0.3,0.1-0.6,0.3-0.8,0.6c-0.2,0.3-0.4,0.6-0.5,1
				c-0.1,0.4-0.2,0.8-0.2,1.3c0,0.5,0.1,0.9,0.2,1.3s0.3,0.7,0.5,1c0.2,0.3,0.5,0.5,0.8,0.6s0.6,0.2,1,0.2c0.3,0,0.6,0,0.9-0.1
				c0.2-0.1,0.4-0.2,0.6-0.3s0.3-0.2,0.4-0.3s0.2-0.1,0.2-0.1c0.1,0,0.1,0,0.1,0.1l0.2,0.2c-0.1,0.1-0.2,0.3-0.4,0.4
				c-0.2,0.1-0.4,0.2-0.6,0.3c-0.2,0.1-0.4,0.2-0.7,0.2S92.1,63,91.9,63c-0.4,0-0.9-0.1-1.2-0.2c-0.4-0.2-0.7-0.4-1-0.7
				c-0.3-0.3-0.5-0.7-0.6-1.1s-0.2-1-0.2-1.5c0-0.5,0.1-1,0.2-1.5c0.1-0.4,0.3-0.8,0.6-1.1c0.3-0.3,0.6-0.6,1-0.7s0.8-0.3,1.4-0.3
				c0.5,0,0.9,0.1,1.2,0.2c0.4,0.1,0.7,0.3,0.9,0.6L94,56.9z"/>
			<path class="st8" d="M106.1,55.8c0.5,0,1,0.1,1.4,0.3c0.4,0.2,0.7,0.4,1,0.7c0.3,0.3,0.5,0.7,0.6,1.1c0.1,0.4,0.2,0.9,0.2,1.5
				c0,0.6-0.1,1-0.2,1.5c-0.1,0.4-0.4,0.8-0.6,1.1c-0.3,0.3-0.6,0.6-1,0.7c-0.4,0.2-0.9,0.3-1.4,0.3c-0.5,0-1-0.1-1.4-0.3
				c-0.4-0.2-0.7-0.4-1-0.7c-0.3-0.3-0.5-0.7-0.6-1.1c-0.1-0.4-0.2-0.9-0.2-1.5c0-0.6,0.1-1.1,0.2-1.5s0.4-0.8,0.6-1.1
				c0.3-0.3,0.6-0.6,1-0.7S105.6,55.8,106.1,55.8z M106.1,62.5c0.4,0,0.8-0.1,1.1-0.2s0.6-0.3,0.8-0.6c0.2-0.3,0.4-0.6,0.5-1
				c0.1-0.4,0.2-0.8,0.2-1.3c0-0.5-0.1-0.9-0.2-1.3s-0.3-0.7-0.5-1c-0.2-0.3-0.5-0.5-0.8-0.6c-0.3-0.1-0.7-0.2-1.1-0.2
				c-0.4,0-0.8,0.1-1.1,0.2c-0.3,0.1-0.6,0.4-0.8,0.6c-0.2,0.3-0.4,0.6-0.5,1c-0.1,0.4-0.2,0.8-0.2,1.3c0,0.5,0.1,0.9,0.2,1.3
				c0.1,0.4,0.3,0.7,0.5,1c0.2,0.3,0.5,0.5,0.8,0.6S105.7,62.5,106.1,62.5z"/>
			<path class="st8" d="M120.7,63.1c-0.5,0-0.8-0.1-1.1-0.4c-0.3-0.3-0.4-0.7-0.4-1.2v-4.8h-1c-0.1,0-0.1,0-0.1,0s0-0.1,0-0.1v-0.3
				l1.2-0.1l0.2-2.5c0,0,0-0.1,0.1-0.1s0.1,0,0.1,0h0.3v2.7h2.2v0.5h-2.2v4.8c0,0.2,0,0.4,0.1,0.5s0.1,0.3,0.2,0.3s0.2,0.2,0.3,0.2
				c0.1,0,0.2,0.1,0.4,0.1c0.2,0,0.3,0,0.4-0.1c0.1,0,0.2-0.1,0.3-0.2c0.1-0.1,0.2-0.1,0.2-0.2s0.1-0.1,0.1-0.1c0,0,0.1,0,0.1,0.1
				l0.2,0.3c-0.2,0.2-0.4,0.4-0.7,0.5C121.3,63,121,63.1,120.7,63.1z"/>
			<path class="st8" d="M134.1,55.8c0.4,0,0.8,0.1,1.1,0.2s0.6,0.3,0.9,0.6c0.2,0.3,0.4,0.6,0.6,1c0.1,0.4,0.2,0.8,0.2,1.3
				c0,0.1,0,0.2,0,0.2c0,0-0.1,0.1-0.1,0.1h-5.1v0.1c0,0.5,0.1,1,0.2,1.4c0.1,0.4,0.3,0.7,0.5,1c0.2,0.3,0.5,0.5,0.8,0.6
				c0.3,0.1,0.7,0.2,1.1,0.2c0.4,0,0.7,0,0.9-0.1c0.3-0.1,0.5-0.2,0.7-0.3s0.3-0.2,0.4-0.3c0.1-0.1,0.2-0.1,0.2-0.1
				c0.1,0,0.1,0,0.1,0.1l0.2,0.2c-0.1,0.1-0.3,0.3-0.4,0.4c-0.2,0.1-0.4,0.2-0.6,0.3s-0.5,0.2-0.7,0.2c-0.3,0.1-0.5,0.1-0.8,0.1
				c-0.5,0-0.9-0.1-1.3-0.3c-0.4-0.2-0.7-0.4-1-0.7c-0.3-0.3-0.5-0.7-0.7-1.2c-0.2-0.5-0.2-1-0.2-1.6c0-0.5,0.1-1,0.2-1.4
				s0.4-0.8,0.6-1.1c0.3-0.3,0.6-0.6,1-0.7C133.2,55.9,133.6,55.8,134.1,55.8z M134.2,56.3c-0.4,0-0.7,0.1-1,0.2
				c-0.3,0.1-0.5,0.3-0.7,0.5c-0.2,0.2-0.4,0.5-0.5,0.8c-0.1,0.3-0.2,0.6-0.3,1h4.6c0-0.4-0.1-0.7-0.2-1c-0.1-0.3-0.2-0.6-0.4-0.8
				c-0.2-0.2-0.4-0.4-0.7-0.5S134.5,56.3,134.2,56.3z"/>
			<path class="st8" d="M151,56.9C151,56.9,151,56.9,151,56.9c-0.1,0.1-0.1,0.1-0.2,0.1c0,0-0.1,0-0.2-0.1c-0.1-0.1-0.2-0.1-0.3-0.2
				s-0.3-0.1-0.5-0.2c-0.2-0.1-0.5-0.1-0.7-0.1c-0.4,0-0.8,0.1-1.1,0.2c-0.3,0.1-0.6,0.3-0.8,0.6c-0.2,0.3-0.4,0.6-0.5,1
				c-0.1,0.4-0.2,0.8-0.2,1.3c0,0.5,0.1,0.9,0.2,1.3s0.3,0.7,0.5,1c0.2,0.3,0.5,0.5,0.8,0.6s0.6,0.2,1,0.2c0.3,0,0.6,0,0.9-0.1
				c0.2-0.1,0.4-0.2,0.6-0.3s0.3-0.2,0.4-0.3s0.2-0.1,0.2-0.1c0.1,0,0.1,0,0.1,0.1l0.2,0.2c-0.1,0.1-0.2,0.3-0.4,0.4
				c-0.2,0.1-0.4,0.2-0.6,0.3c-0.2,0.1-0.4,0.2-0.7,0.2s-0.5,0.1-0.8,0.1c-0.4,0-0.9-0.1-1.2-0.2c-0.4-0.2-0.7-0.4-1-0.7
				c-0.3-0.3-0.5-0.7-0.6-1.1s-0.2-1-0.2-1.5c0-0.5,0.1-1,0.2-1.5c0.1-0.4,0.3-0.8,0.6-1.1c0.3-0.3,0.6-0.6,1-0.7s0.8-0.3,1.4-0.3
				c0.5,0,0.9,0.1,1.2,0.2c0.4,0.1,0.7,0.3,0.9,0.6L151,56.9z"/>
			<path class="st8" d="M160.5,63v-7h0.4c0.1,0,0.2,0.1,0.2,0.2l0.1,1.1c0.3-0.4,0.7-0.7,1.1-1c0.4-0.2,0.9-0.4,1.4-0.4
				c0.4,0,0.7,0.1,1,0.2c0.3,0.1,0.5,0.3,0.7,0.5c0.2,0.2,0.3,0.5,0.4,0.8c0.1,0.3,0.1,0.7,0.1,1.1V63h-0.7v-4.5
				c0-0.7-0.2-1.2-0.5-1.6s-0.8-0.6-1.4-0.6c-0.5,0-0.9,0.1-1.3,0.4c-0.4,0.2-0.7,0.6-1.1,1V63H160.5z"/>
			<path class="st8" d="M178.5,55.8c0.5,0,1,0.1,1.4,0.3c0.4,0.2,0.7,0.4,1,0.7c0.3,0.3,0.5,0.7,0.6,1.1c0.1,0.4,0.2,0.9,0.2,1.5
				c0,0.6-0.1,1-0.2,1.5c-0.1,0.4-0.4,0.8-0.6,1.1c-0.3,0.3-0.6,0.6-1,0.7c-0.4,0.2-0.9,0.3-1.4,0.3c-0.5,0-1-0.1-1.4-0.3
				c-0.4-0.2-0.7-0.4-1-0.7c-0.3-0.3-0.5-0.7-0.6-1.1c-0.1-0.4-0.2-0.9-0.2-1.5c0-0.6,0.1-1.1,0.2-1.5s0.4-0.8,0.6-1.1
				c0.3-0.3,0.6-0.6,1-0.7S178,55.8,178.5,55.8z M178.5,62.5c0.4,0,0.8-0.1,1.1-0.2s0.6-0.3,0.8-0.6c0.2-0.3,0.4-0.6,0.5-1
				c0.1-0.4,0.2-0.8,0.2-1.3c0-0.5-0.1-0.9-0.2-1.3s-0.3-0.7-0.5-1c-0.2-0.3-0.5-0.5-0.8-0.6c-0.3-0.1-0.7-0.2-1.1-0.2
				c-0.4,0-0.8,0.1-1.1,0.2c-0.3,0.1-0.6,0.4-0.8,0.6c-0.2,0.3-0.4,0.6-0.5,1c-0.1,0.4-0.2,0.8-0.2,1.3c0,0.5,0.1,0.9,0.2,1.3
				c0.1,0.4,0.3,0.7,0.5,1c0.2,0.3,0.5,0.5,0.8,0.6S178.1,62.5,178.5,62.5z"/>
			<path class="st8" d="M192,52.7V63h-0.7V52.7H192z"/>
			<path class="st8" d="M204.8,55.8c0.5,0,1,0.1,1.4,0.3c0.4,0.2,0.7,0.4,1,0.7c0.3,0.3,0.5,0.7,0.6,1.1c0.1,0.4,0.2,0.9,0.2,1.5
				c0,0.6-0.1,1-0.2,1.5c-0.1,0.4-0.4,0.8-0.6,1.1c-0.3,0.3-0.6,0.6-1,0.7c-0.4,0.2-0.9,0.3-1.4,0.3c-0.5,0-1-0.1-1.4-0.3
				c-0.4-0.2-0.7-0.4-1-0.7c-0.3-0.3-0.5-0.7-0.6-1.1c-0.1-0.4-0.2-0.9-0.2-1.5c0-0.6,0.1-1.1,0.2-1.5s0.4-0.8,0.6-1.1
				c0.3-0.3,0.6-0.6,1-0.7S204.3,55.8,204.8,55.8z M204.8,62.5c0.4,0,0.8-0.1,1.1-0.2s0.6-0.3,0.8-0.6c0.2-0.3,0.4-0.6,0.5-1
				c0.1-0.4,0.2-0.8,0.2-1.3c0-0.5-0.1-0.9-0.2-1.3s-0.3-0.7-0.5-1c-0.2-0.3-0.5-0.5-0.8-0.6c-0.3-0.1-0.7-0.2-1.1-0.2
				c-0.4,0-0.8,0.1-1.1,0.2c-0.3,0.1-0.6,0.4-0.8,0.6c-0.2,0.3-0.4,0.6-0.5,1c-0.1,0.4-0.2,0.8-0.2,1.3c0,0.5,0.1,0.9,0.2,1.3
				c0.1,0.4,0.3,0.7,0.5,1c0.2,0.3,0.5,0.5,0.8,0.6S204.4,62.5,204.8,62.5z"/>
			<path class="st8" d="M219.8,55.8c0.3,0,0.6,0,0.9,0.1c0.3,0.1,0.5,0.2,0.7,0.3h1.8v0.2c0,0.1-0.1,0.2-0.2,0.2l-1.1,0.1
				c0.1,0.2,0.2,0.4,0.3,0.6c0.1,0.2,0.1,0.5,0.1,0.7c0,0.3-0.1,0.6-0.2,0.9c-0.1,0.3-0.3,0.5-0.5,0.7c-0.2,0.2-0.5,0.3-0.8,0.5
				s-0.6,0.2-1,0.2c-0.4,0-0.8-0.1-1.1-0.2c-0.2,0.1-0.4,0.2-0.5,0.4S218,60.8,218,61c0,0.2,0.1,0.4,0.2,0.5s0.3,0.2,0.6,0.2
				s0.5,0.1,0.8,0.1c0.3,0,0.6,0,0.9,0c0.3,0,0.6,0,0.9,0.1c0.3,0,0.6,0.1,0.8,0.2c0.2,0.1,0.4,0.3,0.6,0.4c0.1,0.2,0.2,0.4,0.2,0.8
				c0,0.3-0.1,0.6-0.2,0.8c-0.1,0.3-0.4,0.5-0.6,0.7c-0.3,0.2-0.6,0.4-1,0.5c-0.4,0.1-0.8,0.2-1.3,0.2c-0.5,0-0.9-0.1-1.3-0.2
				s-0.7-0.2-0.9-0.4c-0.3-0.2-0.4-0.4-0.6-0.6c-0.1-0.2-0.2-0.5-0.2-0.7c0-0.4,0.1-0.7,0.4-1c0.2-0.3,0.6-0.5,1-0.6
				c-0.2-0.1-0.4-0.2-0.6-0.3c-0.1-0.2-0.2-0.4-0.2-0.6c0-0.1,0-0.2,0.1-0.3c0-0.1,0.1-0.2,0.2-0.3c0.1-0.1,0.2-0.2,0.3-0.3
				c0.1-0.1,0.2-0.2,0.4-0.3c-0.3-0.2-0.6-0.5-0.8-0.8c-0.2-0.3-0.3-0.7-0.3-1.1c0-0.3,0.1-0.6,0.2-0.9c0.1-0.3,0.3-0.5,0.5-0.7
				c0.2-0.2,0.5-0.4,0.8-0.5C219.1,55.9,219.4,55.8,219.8,55.8z M222.4,63.4c0-0.2-0.1-0.4-0.2-0.5c-0.1-0.1-0.3-0.2-0.5-0.3
				s-0.4-0.1-0.7-0.2c-0.3,0-0.5-0.1-0.8-0.1c-0.3,0-0.6,0-0.8,0c-0.3,0-0.5,0-0.8-0.1c-0.2,0.1-0.3,0.2-0.5,0.2s-0.3,0.2-0.4,0.3
				c-0.1,0.1-0.2,0.2-0.3,0.4c-0.1,0.1-0.1,0.3-0.1,0.5c0,0.2,0.1,0.4,0.2,0.6c0.1,0.2,0.3,0.3,0.5,0.5c0.2,0.1,0.5,0.2,0.8,0.3
				c0.3,0.1,0.6,0.1,1,0.1c0.4,0,0.7,0,1-0.1c0.3-0.1,0.6-0.2,0.8-0.3c0.2-0.1,0.4-0.3,0.5-0.5C222.3,63.9,222.4,63.7,222.4,63.4z
				 M219.8,59.8c0.3,0,0.6,0,0.8-0.1c0.2-0.1,0.4-0.2,0.6-0.4c0.2-0.2,0.3-0.3,0.4-0.6c0.1-0.2,0.1-0.5,0.1-0.7s0-0.5-0.1-0.7
				c-0.1-0.2-0.2-0.4-0.4-0.6c-0.2-0.2-0.4-0.3-0.6-0.4s-0.5-0.1-0.8-0.1c-0.3,0-0.6,0-0.8,0.1s-0.4,0.2-0.6,0.4
				c-0.2,0.2-0.3,0.3-0.4,0.6c-0.1,0.2-0.1,0.5-0.1,0.7s0,0.5,0.1,0.7s0.2,0.4,0.4,0.6c0.2,0.2,0.4,0.3,0.6,0.4
				C219.2,59.8,219.5,59.8,219.8,59.8z"/>
			<path class="st8" d="M234.4,52.8l-1.5,1.8c0,0-0.1,0.1-0.1,0.1s-0.1,0-0.1,0h-0.4l1.1-1.7c0.1-0.1,0.1-0.1,0.2-0.2s0.1,0,0.3,0
				H234.4z M233.1,55.9v7h-0.7v-7H233.1z"/>
			<path class="st8" d="M247.8,63c-0.1,0-0.2-0.1-0.3-0.2l-0.1-0.9c-0.2,0.2-0.4,0.4-0.6,0.5c-0.2,0.2-0.4,0.3-0.6,0.4
				c-0.2,0.1-0.4,0.2-0.7,0.2c-0.2,0.1-0.5,0.1-0.8,0.1c-0.2,0-0.5,0-0.7-0.1c-0.2-0.1-0.4-0.2-0.6-0.3c-0.2-0.1-0.3-0.3-0.4-0.6
				c-0.1-0.2-0.2-0.5-0.2-0.8c0-0.3,0.1-0.6,0.3-0.8c0.2-0.3,0.4-0.5,0.8-0.7c0.4-0.2,0.8-0.3,1.4-0.5s1.2-0.2,2-0.2v-0.7
				c0-0.7-0.1-1.2-0.4-1.5c-0.3-0.4-0.7-0.5-1.2-0.5c-0.3,0-0.6,0-0.9,0.1c-0.2,0.1-0.4,0.2-0.6,0.3c-0.2,0.1-0.3,0.2-0.4,0.3
				c-0.1,0.1-0.2,0.1-0.3,0.1c-0.1,0-0.2,0-0.2-0.1l-0.1-0.2c0.4-0.4,0.8-0.6,1.2-0.8c0.4-0.2,0.9-0.3,1.4-0.3c0.4,0,0.7,0.1,1,0.2
				c0.3,0.1,0.5,0.3,0.7,0.5c0.2,0.2,0.3,0.5,0.4,0.8c0.1,0.3,0.1,0.7,0.1,1.1V63H247.8z M245,62.6c0.3,0,0.5,0,0.8-0.1
				c0.2-0.1,0.4-0.1,0.6-0.2c0.2-0.1,0.4-0.2,0.5-0.4c0.2-0.1,0.3-0.3,0.5-0.5v-1.8c-0.7,0-1.2,0.1-1.7,0.2
				c-0.5,0.1-0.9,0.2-1.2,0.3s-0.5,0.3-0.7,0.5c-0.1,0.2-0.2,0.4-0.2,0.7c0,0.2,0,0.4,0.1,0.6c0.1,0.2,0.2,0.3,0.3,0.4
				c0.1,0.1,0.3,0.2,0.4,0.2C244.6,62.6,244.8,62.6,245,62.6z"/>
			<path class="st8" d="M261.7,56.8c0,0.1-0.1,0.1-0.2,0.1c-0.1,0-0.1,0-0.2-0.1c-0.1-0.1-0.2-0.1-0.3-0.2c-0.1-0.1-0.3-0.1-0.5-0.2
				c-0.2-0.1-0.4-0.1-0.7-0.1c-0.3,0-0.5,0-0.7,0.1c-0.2,0.1-0.4,0.2-0.5,0.3s-0.3,0.3-0.3,0.4c-0.1,0.2-0.1,0.3-0.1,0.5
				c0,0.2,0.1,0.4,0.2,0.5c0.1,0.1,0.3,0.3,0.4,0.4c0.2,0.1,0.4,0.2,0.6,0.3c0.2,0.1,0.5,0.2,0.7,0.2c0.2,0.1,0.5,0.2,0.7,0.3
				c0.2,0.1,0.4,0.2,0.6,0.3c0.2,0.1,0.3,0.3,0.4,0.5s0.2,0.4,0.2,0.7c0,0.3-0.1,0.6-0.2,0.9c-0.1,0.3-0.3,0.5-0.5,0.7
				s-0.5,0.3-0.8,0.5s-0.7,0.2-1,0.2c-0.5,0-0.9-0.1-1.3-0.2c-0.4-0.2-0.7-0.4-1-0.6l0.2-0.2c0,0,0-0.1,0.1-0.1c0,0,0.1,0,0.1,0
				c0.1,0,0.1,0,0.2,0.1c0.1,0.1,0.2,0.2,0.3,0.2c0.1,0.1,0.3,0.2,0.5,0.2c0.2,0.1,0.5,0.1,0.8,0.1c0.3,0,0.6,0,0.8-0.1
				c0.2-0.1,0.4-0.2,0.6-0.3c0.2-0.1,0.3-0.3,0.3-0.5c0.1-0.2,0.1-0.4,0.1-0.6c0-0.2-0.1-0.4-0.2-0.6c-0.1-0.2-0.3-0.3-0.4-0.4
				s-0.4-0.2-0.6-0.3c-0.2-0.1-0.5-0.2-0.7-0.2c-0.2-0.1-0.5-0.2-0.7-0.2c-0.2-0.1-0.4-0.2-0.6-0.3s-0.3-0.3-0.4-0.5
				c-0.1-0.2-0.2-0.4-0.2-0.7c0-0.2,0.1-0.5,0.2-0.7c0.1-0.2,0.3-0.4,0.5-0.6c0.2-0.2,0.4-0.3,0.7-0.4c0.3-0.1,0.6-0.2,1-0.2
				c0.4,0,0.8,0.1,1.1,0.2c0.3,0.1,0.6,0.3,0.9,0.6L261.7,56.8z"/>
		</g>
	</g>
	<g>
		<g>
			<g>
				<path class="st0" d="M37.6,34.8c1.1,1.1,1.1,2.9,0,4l-8.8,8.8c-1.1,1.1-2.9,1.1-4,0l-8.8-8.8c-1.1-1.1-1.1-2.9,0-4l8.8-8.8
					c1.1-1.1,2.9-1.1,4,0L37.6,34.8z"/>
			</g>
			<g>
				<path class="st1" d="M51.8,20.7c1.1,1.1,1.1,2.9,0,4l-8.8,8.8c-1.1,1.1-2.9,1.1-4,0l-8.8-8.8c-1.1-1.1-1.1-2.9,0-4l8.8-8.8
					c1.1-1.1,2.9-1.1,4,0L51.8,20.7z"/>
			</g>
			<g>
				<path class="st1" d="M51.6,48.8c1.1,1.1,1.1,2.9,0,4l-8.8,8.8c-1.1,1.1-2.9,1.1-4,0l-8.8-8.8c-1.1-1.1-1.1-2.9,0-4l8.8-8.8
					c1.1-1.1,2.9-1.1,4,0L51.6,48.8z"/>
			</g>
			<g>
				<path class="st2" d="M65.8,34.7c1.1,1.1,1.1,2.9,0,4l-8.8,8.8c-1.1,1.1-2.9,1.1-4,0l-8.8-8.8c-1.1-1.1-1.1-2.9,0-4l8.8-8.8
					c1.1-1.1,2.9-1.1,4,0L65.8,34.7z"/>
			</g>
		</g>
	</g>
	<g>
		<circle class="st3" cx="175.7" cy="32.7" r="14.4"/>
		<circle class="st4" cx="175.7" cy="32.7" r="10.1"/>
		<circle class="st5" cx="175.7" cy="32.7" r="5.8"/>
	</g>
	<path class="st6" d="M53.8,42.5"/>
</g>
</svg>
