<?xml version="1.0" encoding="utf-8"?>
<!-- Generator: Adobe Illustrator 22.1.0, SVG Export Plug-In . SVG Version: 6.00 Build 0)  -->
<svg version="1.1" id="Capa_1" xmlns="http://www.w3.org/2000/svg" xmlns:xlink="http://www.w3.org/1999/xlink" x="0px" y="0px"
	 viewBox="0 0 196 215" style="enable-background:new 0 0 196 215;" xml:space="preserve">
<style type="text/css">
	.st0{fill:#E8F5FD;}
	.st1{fill:#FFFFFF;}
	.st2{fill:#CDDCF5;}
	.st3{fill:#F7DDE2;}
	.st4{fill:#BCD1F2;}
	.st5{fill:#8EB4EA;}
	.st6{fill:#659EE3;}
	.st7{fill:#92B4E0;}
	.st8{font-family:'OpenSans-Semibold';}
	.st9{font-size:25.4844px;}
</style>
<circle class="st0" cx="97.8" cy="117.3" r="98"/>
<g>
	<g id="XMLID_1_">
		<g id="XMLID_15_">
			<g>
				<polygon class="st1" points="119,0 83.9,0 83.9,27.3 80.5,29.2 80.5,98.7 157.5,98.7 157.5,29.2 				"/>
			</g>
		</g>
		<g id="XMLID_14_">
			<g>
				<polygon class="st2" points="122.4,98.7 45.4,98.7 45.4,29.2 83.9,0 122.4,29.2 				"/>
			</g>
		</g>
		<g id="XMLID_13_">
			<g>
				<rect x="122.4" y="29.2" class="st3" width="35.1" height="69.5"/>
			</g>
		</g>
		<g id="XMLID_10_">
			<g id="XMLID_12_">
				<g>
					<g>
						<polygon class="st4" points="55.7,98.7 55.7,35.2 83.9,11.7 112.1,35.2 112.1,98.7 						"/>
					</g>
				</g>
			</g>
			<g id="XMLID_11_">
				<g>
					<g>
						<polygon class="st5" points="55.7,98.7 55.7,35.2 83.9,11.7 112.1,35.2 112.1,98.7 						"/>
					</g>
				</g>
			</g>
		</g>
		<g id="XMLID_4_">
			<g>
				<rect x="134.8" y="39.5" class="st5" width="12.6" height="19.5"/>
			</g>
		</g>
		<g id="XMLID_3_">
			<g>
				<rect x="134.8" y="69.6" class="st5" width="12.6" height="19.5"/>
			</g>
		</g>
		<g id="XMLID_2_">
			<g>
				<polygon class="st2" points="116.4,2.8 146.7,25.8 126.3,25.8 96.1,2.8 				"/>
			</g>
		</g>
	</g>
	<g>
		<g>
			<g>
				<path class="st2" d="M28.7,98.7h138.7c1.7,0,3,1.4,3,3v0.1c0,1.7-1.4,3-3,3H28.7c-1.7,0-3-1.4-3-3v-0.1
					C25.6,100.1,27,98.7,28.7,98.7z"/>
			</g>
		</g>
	</g>
	<rect x="77.5" y="68.2" class="st6" width="16.5" height="30.6"/>
	<rect x="61.3" y="37.8" class="st6" width="20.6" height="17.4"/>
	<rect x="85.8" y="37.8" class="st6" width="20.6" height="17.4"/>
</g>
<text transform="matrix(1 0 0 1 25.6289 140.1367)" class="st7 st8 st9">Residencial</text>
</svg>
